<?xml version="1.0" encoding="UTF-8" standalone="no"?>
<!-- Created with Inkscape (http://www.inkscape.org/) -->

<svg
   xmlns:dc="http://purl.org/dc/elements/1.1/"
   xmlns:cc="http://creativecommons.org/ns#"
   xmlns:rdf="http://www.w3.org/1999/02/22-rdf-syntax-ns#"
   xmlns:svg="http://www.w3.org/2000/svg"
   xmlns="http://www.w3.org/2000/svg"
   xmlns:sodipodi="http://sodipodi.sourceforge.net/DTD/sodipodi-0.dtd"
   xmlns:inkscape="http://www.inkscape.org/namespaces/inkscape"
   id="svg2"
   version="1.1"
   inkscape:version="0.48.2 r9819"
   width="580.11151"
   height="520.88367"
   sodipodi:docname="Engadget logo.svg">
  <metadata
     id="metadata8">
    <rdf:RDF>
      <cc:Work
         rdf:about="">
        <dc:format>image/svg+xml</dc:format>
        <dc:type
           rdf:resource="http://purl.org/dc/dcmitype/StillImage" />
        <dc:title></dc:title>
      </cc:Work>
    </rdf:RDF>
  </metadata>
  <defs
     id="defs6" />
  <sodipodi:namedview
     pagecolor="#ffffff"
     bordercolor="#666666"
     borderopacity="1"
     objecttolerance="10"
     gridtolerance="10"
     guidetolerance="10"
     inkscape:pageopacity="0"
     inkscape:pageshadow="2"
     inkscape:window-width="1600"
     inkscape:window-height="837"
     id="namedview4"
     showgrid="false"
     fit-margin-top="0"
     fit-margin-left="0"
     fit-margin-right="0"
     fit-margin-bottom="0"
     inkscape:zoom="0.70710678"
     inkscape:cx="370.42965"
     inkscape:cy="187.23536"
     inkscape:window-x="-8"
     inkscape:window-y="-8"
     inkscape:window-maximized="1"
     inkscape:current-layer="svg2" />
  <g
     id="g3058"
     transform="translate(-436.94588,75.091826)">
    <path
       style="fill:#dbe0e5"
       d="m 907.5,444.509 c -16.60578,-5.27393 -29.55986,-18.86703 -34.04724,-35.72678 -1.79658,-6.75001 -1.84011,-18.83238 -0.0914,-25.36904 4.26092,-15.92728 16.46727,-28.85527 31.72961,-33.60544 4.96329,-1.54475 9.20961,-1.89456 22.99812,-1.89456 l 16.91091,0 0,17.44897 0,17.44898 -3.75,-1.58705 c -11.76649,-4.97972 -22.30317,-5.64186 -28.83794,-1.81223 -5.89827,3.45661 -9.8645,11.44088 -9.18682,18.49362 0.98799,10.28228 9.05553,17.38786 19.08337,16.80794 l 5.19139,-0.30023 0.31826,-3.88244 0.31826,-3.88243 -8.06826,0.46706 -8.06826,0.46706 0,-11.83462 0,-11.83463 22,0 22,0 0,21.45295 c 0,14.19795 0.39399,22.31766 1.16502,24.00989 1.01145,2.21988 0.85131,2.89088 -1.21478,5.09012 -2.96489,3.15599 -12.78316,8.05231 -19.99558,9.9717 -6.66086,1.7726 -22.96901,1.81339 -28.45466,0.0712 z M 451,443.52749 c 0,-0.21213 0.67223,-1.67463 1.49384,-3.25 1.23215,-2.36255 1.49492,-8.36373 1.5,-34.25791 l 0.006,-31.3936 -6.91608,0.64278 c -3.80385,0.35353 -7.62885,0.9163 -8.5,1.25059 C 437.18324,377.05684 437,375.43727 437,362.52017 l 0,-14.60699 24,0 24,0 0,48 0,48 -17,0 c -9.35,0 -17,-0.17356 -17,-0.38569 z m 38.66667,-0.28098 C 489.3,442.87985 489,421.27985 489,395.24651 l 0,-47.33333 21.5,0 21.5,0 0,14.56739 c 0,13.38992 -0.14145,14.52858 -1.75,14.08732 -0.9625,-0.26404 -3.4375,-0.76476 -5.5,-1.1127 l -3.75,-0.63264 0,4.54532 0,4.54531 7.5,0 7.5,0 0,-18 0,-18 16,0 16,0 0,48 0,48 -17.4407,0 -17.44069,0 1.43453,-2.75 c 1.06219,-2.03621 1.43614,-6.70827 1.4407,-18 l 0.006,-15.25 -7.5,0 -7.5,0 0,15.04966 c 0,11.5342 0.35638,15.73883 1.52568,18 l 1.52568,2.95034 -16.85901,0 c -9.27246,0 -17.15902,-0.3 -17.52568,-0.66667 z M 569,443.52749 c 0,-0.21213 0.67223,-1.67463 1.49384,-3.25 2.18515,-4.18984 2.23629,-83.6811 0.0572,-88.89643 l -1.44899,-3.46788 29.94898,0 29.94897,0 0,14.56739 0,14.56739 -2.25,-0.72178 c -5.50972,-1.76746 -9.77507,-2.3669 -17,-2.38914 l -7.75,-0.0239 0,5.1254 0,5.1254 8.5,-0.44613 8.5,-0.44614 0,12.92772 c 0,11.91892 -0.13656,12.87171 -1.75,12.20989 -0.9625,-0.39481 -4.7875,-0.95342 -8.5,-1.24135 l -6.75,-0.52352 0,4.74229 0,4.74229 11.25,-0.4921 c 6.1875,-0.27066 12.2625,-0.82171 13.5,-1.22456 l 2.25,-0.73245 0,15.11663 0,15.11663 -30,0 c -16.5,0 -30,-0.17356 -30,-0.38569 z m 97.05444,-44.76131 c -10.69506,-24.8404 -20.52256,-46.44432 -21.8389,-48.00869 l -2.39333,-2.84431 34.5889,0 c 19.02389,0 34.58889,0.31414 34.58889,0.69808 0,0.38395 -2.09652,6.21631 -4.65893,12.9608 l -4.65893,12.26271 -7.21955,0.28921 -7.21954,0.2892 4.52949,12.37542 4.52949,12.37542 9.5865,-25.62542 9.58651,-25.62542 39.76248,0 39.76248,0 0,15.10699 c 0,13.98251 -0.13026,15.05588 -1.75,14.42037 -3.20938,-1.2592 -12.67715,-2.51571 -19,-2.52157 l -6.25,-0.006 0,4.6254 0,4.6254 8.5,-0.44613 8.5,-0.44614 0,12.92772 c 0,11.91892 -0.13656,12.87171 -1.75,12.20989 -0.9625,-0.39481 -4.7875,-0.95342 -8.5,-1.24135 l -6.75,-0.52352 0,5.13436 0,5.13437 8.37427,0 c 4.8876,0 10.14439,-0.62453 12.62573,-1.5 2.3383,-0.825 4.64488,-1.5 5.12573,-1.5 0.48085,0 0.87427,6.75 0.87427,15 l 0,15 -30,0 c -16.5,0 -30,-0.36 -30,-0.8 0,-0.44 0.5625,-1.3619 1.25,-2.04866 0.93806,-0.93704 1.32513,-9.65093 1.55105,-34.91771 0.16557,-18.51798 0.0641,-33.43206 -0.22562,-33.14239 -0.28967,0.28967 -7.23201,16.25014 -15.42742,35.46771 l -14.90074,34.94105 -10.87364,0.25869 -10.87363,0.25869 -19.44556,-45.16438 z m 131.41988,42.19666 C 798.77222,438.45298 799,431.61845 799,395.18535 c 0,-37.65045 -0.19351,-43.10344 -1.60096,-45.11285 l -1.60096,-2.28569 25.35096,0.31319 25.35096,0.31318 6.35215,3.44377 c 7.41995,4.02267 12.46124,10.00508 14.65434,17.39003 2.77309,9.33802 1.26342,20.22275 -3.83223,27.63039 l -2.38298,3.46418 3.82597,2.77152 c 4.18568,3.03209 9.26455,11.01927 11.00077,17.30011 0.60815,2.2 1.66919,7.6 2.35788,12 0.68869,4.4 1.58649,8.7875 1.99512,9.75 0.69193,1.62981 -0.50801,1.75 -17.47102,1.75 -16.97601,0 -18.16116,-0.11894 -17.43689,-1.75 4.08433,-9.19795 -1.61221,-21.27658 -11.87465,-25.17835 l -2.80268,-1.06557 0.32477,12.24696 c 0.17863,6.73583 0.70247,13.03446 1.1641,13.99696 0.78373,1.63408 -0.39487,1.75 -17.79334,1.75 l -18.63267,0 1.52568,-2.95034 z M 839.25,386.81618 c 3.18389,-3.86537 2.11203,-9.14731 -2.32152,-11.43999 C 831.44863,372.54245 831,373.06969 831,382.34337 l 0,8.4302 3.25,-0.91641 c 1.7875,-0.50402 4.0375,-1.87246 5,-3.04098 z m 119.22432,54.14666 c 2.20637,-4.26665 2.27779,-86.08425 0.0788,-90.29966 l -1.43453,-2.75 29.94069,0 29.94072,0 0,14.35351 0,14.35352 -5.2179,-1.35352 c -2.8699,-0.74443 -8.9449,-1.35351 -13.50003,-1.35351 l -8.28207,0 0,5.13871 0,5.1387 9,-0.51316 9,-0.51315 0,12.98144 c 0,11.95882 -0.1379,12.92722 -1.75,12.29313 -0.9625,-0.37857 -5.0125,-0.94167 -9,-1.25133 l -7.25,-0.56302 0,4.75227 0,4.75226 11.25,-0.4921 c 6.1875,-0.27066 12.2625,-0.82171 13.5,-1.22456 l 2.25,-0.73245 0,15.11663 0,15.11663 -30.02568,0 -30.02568,0 1.52568,-2.95034 z M 689.85229,280.14674 C 677.14608,258.05047 545.1518,29.32487 520.11347,-13.98429 c -6.16785,-10.66861 -10.98871,-19.89361 -10.71302,-20.5 0.27568,-0.60639 5.61088,-9.87753 11.856,-20.60253 l 11.35475,-19.5 194.95402,-0.252503 194.95401,-0.252503 12.15707,21.015606 12.15707,21.01561 -59.01828,102.23689 c -32.46006,56.2303 -76.18507,132.03743 -97.16669,168.46029 l -38.1484,66.2234 -24.5,0.0102 -24.5,0.0102 -13.64771,-23.73356 z m 32.17769,-177.73356 c 9.50539,-16.5 25.31221,-43.87889 35.12627,-60.84198 C 766.97031,24.60812 775,10.32062 775,9.8212 775,9.28563 745.63832,8.91318 703.41667,8.91318 c -44.41671,0 -71.45683,0.35795 -71.25,0.94319 1.25393,3.5481 71.4621,123.80552 71.95705,123.25304 0.34305,-0.38293 8.40087,-14.19623 17.90626,-30.69623 z"
       id="path3080"
       inkscape:connector-curvature="0" />
    <path
       style="fill:#f9d4ce"
       d="m 907.5,444.509 c -16.60578,-5.27393 -29.55986,-18.86703 -34.04724,-35.72678 -1.79658,-6.75001 -1.84011,-18.83238 -0.0914,-25.36904 4.26092,-15.92728 16.46727,-28.85527 31.72961,-33.60544 4.96329,-1.54475 9.20961,-1.89456 22.99812,-1.89456 l 16.91091,0 0,17.44897 0,17.44898 -3.75,-1.58705 c -11.76649,-4.97972 -22.30317,-5.64186 -28.83794,-1.81223 -5.89827,3.45661 -9.8645,11.44088 -9.18682,18.49362 0.98799,10.28228 9.05553,17.38786 19.08337,16.80794 l 5.19139,-0.30023 0.31826,-3.88244 0.31826,-3.88243 -8.06826,0.46706 -8.06826,0.46706 0,-11.83462 0,-11.83463 22,0 22,0 0,21.45295 c 0,14.19795 0.39399,22.31766 1.16502,24.00989 1.01145,2.21988 0.85131,2.89088 -1.21478,5.09012 -2.96489,3.15599 -12.78316,8.05231 -19.99558,9.9717 -6.66086,1.7726 -22.96901,1.81339 -28.45466,0.0712 z M 451,443.52749 c 0,-0.21213 0.67223,-1.67463 1.49384,-3.25 1.23215,-2.36255 1.49492,-8.36373 1.5,-34.25791 l 0.006,-31.3936 -6.91608,0.64278 c -3.80385,0.35353 -7.62885,0.9163 -8.5,1.25059 C 437.18324,377.05684 437,375.43727 437,362.52017 l 0,-14.60699 24,0 24,0 0,48 0,48 -17,0 c -9.35,0 -17,-0.17356 -17,-0.38569 z m 38.66667,-0.28098 C 489.3,442.87985 489,421.27985 489,395.24651 l 0,-47.33333 21.5,0 21.5,0 0,14.56739 c 0,13.38992 -0.14145,14.52858 -1.75,14.08732 -0.9625,-0.26404 -3.4375,-0.76476 -5.5,-1.1127 l -3.75,-0.63264 0,4.54532 0,4.54531 7.5,0 7.5,0 0,-18 0,-18 16,0 16,0 0,48 0,48 -17.4407,0 -17.44069,0 1.43453,-2.75 c 1.06219,-2.03621 1.43614,-6.70827 1.4407,-18 l 0.006,-15.25 -7.5,0 -7.5,0 0,15.04966 c 0,11.5342 0.35638,15.73883 1.52568,18 l 1.52568,2.95034 -16.85901,0 c -9.27246,0 -17.15902,-0.3 -17.52568,-0.66667 z M 569,443.52749 c 0,-0.21213 0.67223,-1.67463 1.49384,-3.25 2.18515,-4.18984 2.23629,-83.6811 0.0572,-88.89643 l -1.44899,-3.46788 29.94898,0 29.94897,0 0,14.56739 0,14.56739 -2.25,-0.72178 c -5.50972,-1.76746 -9.77507,-2.3669 -17,-2.38914 l -7.75,-0.0239 0,5.1254 0,5.1254 8.5,-0.44613 8.5,-0.44614 0,12.92772 c 0,11.91892 -0.13656,12.87171 -1.75,12.20989 -0.9625,-0.39481 -4.7875,-0.95342 -8.5,-1.24135 l -6.75,-0.52352 0,4.74229 0,4.74229 11.25,-0.4921 c 6.1875,-0.27066 12.2625,-0.82171 13.5,-1.22456 l 2.25,-0.73245 0,15.11663 0,15.11663 -30,0 c -16.5,0 -30,-0.17356 -30,-0.38569 z m 97.05444,-44.76131 c -10.69506,-24.8404 -20.52256,-46.44432 -21.8389,-48.00869 l -2.39333,-2.84431 34.5889,0 c 19.02389,0 34.58889,0.31414 34.58889,0.69808 0,0.38395 -2.09652,6.21631 -4.65893,12.9608 l -4.65893,12.26271 -7.21955,0.28921 -7.21954,0.2892 4.52949,12.37542 4.52949,12.37542 9.5865,-25.62542 9.58651,-25.62542 39.76248,0 39.76248,0 0,15.10699 c 0,13.98251 -0.13026,15.05588 -1.75,14.42037 -3.20938,-1.2592 -12.67715,-2.51571 -19,-2.52157 l -6.25,-0.006 0,4.6254 0,4.6254 8.5,-0.44613 8.5,-0.44614 0,12.92772 c 0,11.91892 -0.13656,12.87171 -1.75,12.20989 -0.9625,-0.39481 -4.7875,-0.95342 -8.5,-1.24135 l -6.75,-0.52352 0,5.13436 0,5.13437 8.37427,0 c 4.8876,0 10.14439,-0.62453 12.62573,-1.5 2.3383,-0.825 4.64488,-1.5 5.12573,-1.5 0.48085,0 0.87427,6.75 0.87427,15 l 0,15 -30,0 c -16.5,0 -30,-0.36 -30,-0.8 0,-0.44 0.5625,-1.3619 1.25,-2.04866 0.93806,-0.93704 1.32513,-9.65093 1.55105,-34.91771 0.16557,-18.51798 0.0641,-33.43206 -0.22562,-33.14239 -0.28967,0.28967 -7.23201,16.25014 -15.42742,35.46771 l -14.90074,34.94105 -10.87364,0.25869 -10.87363,0.25869 -19.44556,-45.16438 z m 131.41988,42.19666 C 798.77222,438.45298 799,431.61845 799,395.18535 c 0,-37.65045 -0.19351,-43.10344 -1.60096,-45.11285 l -1.60096,-2.28569 25.35096,0.31319 25.35096,0.31318 6.35215,3.44377 c 7.41995,4.02267 12.46124,10.00508 14.65434,17.39003 2.77309,9.33802 1.26342,20.22275 -3.83223,27.63039 l -2.38298,3.46418 3.82597,2.77152 c 4.18568,3.03209 9.26455,11.01927 11.00077,17.30011 0.60815,2.2 1.66919,7.6 2.35788,12 0.68869,4.4 1.58649,8.7875 1.99512,9.75 0.69193,1.62981 -0.50801,1.75 -17.47102,1.75 -16.97601,0 -18.16116,-0.11894 -17.43689,-1.75 4.08433,-9.19795 -1.61221,-21.27658 -11.87465,-25.17835 l -2.80268,-1.06557 0.32477,12.24696 c 0.17863,6.73583 0.70247,13.03446 1.1641,13.99696 0.78373,1.63408 -0.39487,1.75 -17.79334,1.75 l -18.63267,0 1.52568,-2.95034 z M 839.25,386.81618 c 3.18389,-3.86537 2.11203,-9.14731 -2.32152,-11.43999 C 831.44863,372.54245 831,373.06969 831,382.34337 l 0,8.4302 3.25,-0.91641 c 1.7875,-0.50402 4.0375,-1.87246 5,-3.04098 z m 119.22432,54.14666 c 2.20637,-4.26665 2.27779,-86.08425 0.0788,-90.29966 l -1.43453,-2.75 29.94069,0 29.94072,0 0,14.35351 0,14.35352 -5.2179,-1.35352 c -2.8699,-0.74443 -8.9449,-1.35351 -13.50003,-1.35351 l -8.28207,0 0,5.13871 0,5.1387 9,-0.51316 9,-0.51315 0,12.98144 c 0,11.95882 -0.1379,12.92722 -1.75,12.29313 -0.9625,-0.37857 -5.0125,-0.94167 -9,-1.25133 l -7.25,-0.56302 0,4.75227 0,4.75226 11.25,-0.4921 c 6.1875,-0.27066 12.2625,-0.82171 13.5,-1.22456 l 2.25,-0.73245 0,15.11663 0,15.11663 -30.02568,0 -30.02568,0 1.52568,-2.95034 z M 719.24551,247.21199 c -4.37887,-7.58934 -17.18602,-29.77381 -28.46032,-49.29881 -11.27431,-19.525 -24.90799,-43.15 -30.29708,-52.5 -5.38909,-9.35 -24.73034,-42.875 -42.98055,-74.5 -18.25021,-31.625 -33.72124,-58.5125 -34.38006,-59.75 l -1.19787,-2.25 24.78519,0.0109 24.78518,0.0109 36,62.44478 c 26.74761,46.39579 36.27835,62.1349 37.08302,61.23909 0.59566,-0.66313 3.78638,-5.93069 7.09049,-11.70569 3.30411,-5.775 18.83191,-32.775 34.50622,-60 C 787.46359,-10.79353 799,-30.99321 799,-31.57254 c 0,-0.28285 -65.25,-0.51428 -145,-0.51428 -79.75,0 -145,-0.28231 -145,-0.62736 0,-0.34505 5.44383,-10.02005 12.09739,-21.500002 l 12.0974,-20.872638 194.4026,0 c 106.92144,0 194.40261,0.29795 194.40261,0.66211 0,0.364161 -1.98455,4.076661 -4.41012,8.25 -2.42557,4.17334 -35.43069,61.36289 -73.34472,127.08789 -37.91402,65.725 -73.35873,127.15 -78.76601,136.5 -5.40729,9.35 -15.79062,27.33782 -23.07407,39.97293 -7.28346,12.63511 -13.68259,23.11957 -14.22031,23.29881 -0.53771,0.17924 -4.56038,-5.88358 -8.93926,-13.47293 z"
       id="path3078"
       inkscape:connector-curvature="0" />
    <path
       style="fill:#fcc5ba"
       d="m 905.7717,443.62225 c -35.16492,-12.26506 -45.41157,-58.92334 -18.3168,-83.40585 10.82199,-9.77862 19.20979,-12.27522 41.2951,-12.29135 l 16.25,-0.0119 0,17 c 0,9.35 -0.21553,17 -0.47895,17 -0.26342,0 -3.96622,-1.17064 -8.22844,-2.60142 -9.84262,-3.30406 -17.41678,-3.56579 -22.79261,-0.78762 -14.98087,7.74195 -13.30165,31.10381 2.57458,35.81855 2.6875,0.7981 6.47014,1.19407 8.40589,0.87995 3.33998,-0.54198 3.51953,-0.7739 3.51953,-4.54616 l 0,-3.97504 -8,0.3633 -8,0.3633 0,-11.77692 0,-11.77691 21.75,0.2695 21.75,0.2695 0.59526,22.5 c 0.32739,12.375 0.77739,23.38458 1,24.46574 0.3035,1.47402 -0.97103,2.89593 -5.09526,5.68443 -8.392,5.67406 -16.67207,8.11265 -29,8.54089 -9.037,0.31393 -11.43748,0.0378 -17.2283,-1.98199 z M 452.47432,440.96284 C 453.74771,438.50037 454,432.77322 454,406.32847 l 0,-31.68402 -6.75,0.52352 c -3.7125,0.28793 -7.5375,0.84654 -8.5,1.24135 -1.61956,0.66433 -1.75,-0.37094 -1.75,-13.88915 l 0,-14.60699 24,0 24,0 0,48 0,48 -17.02568,0 -17.02568,0 1.52568,-2.95034 z M 490,395.91318 l 0,-48 21,0 21,0 0,14.60699 c 0,12.93066 -0.18218,14.53708 -1.58742,13.99784 -0.87308,-0.33504 -3.34808,-0.89069 -5.5,-1.2348 L 521,374.65756 l 0,4.87781 0,4.87781 7.5,0 7.5,0 0,-18.25 0,-18.25 16.0097,0 16.00969,0 -0.25969,47.75 -0.2597,47.75 -16.86647,0.27471 c -15.8605,0.25832 -16.81509,0.16885 -16.00497,-1.5 0.47383,-0.97609 0.99723,-9.08721 1.16312,-18.02471 l 0.30161,-16.25 -7.61394,0 -7.61395,0 0.34724,16.25 c 0.19098,8.9375 0.71941,17.0375 1.17429,18 0.77015,1.62962 -0.31536,1.75 -15.77994,1.75 l -16.60699,0 0,-48 z m 80.47432,45.04966 c 2.20637,-4.26665 2.27779,-86.08425 0.0788,-90.29966 l -1.43453,-2.75 29.94069,0 29.9407,0 0,14.40213 0,14.40213 -4.65893,-1.40213 c -2.56239,-0.77117 -8.63739,-1.40213 -13.49998,-1.40213 l -8.84107,0 0,5.36133 c 0,4.98607 0.15748,5.33939 2.25,5.04798 1.2375,-0.17234 5.0625,-0.51727 8.5,-0.7665 l 6.25,-0.45315 0,12.83536 0,12.83537 -3.2434,-0.9302 c -1.78387,-0.5116 -5.60887,-0.93019 -8.5,-0.93019 l -5.2566,0 0,4.60793 0,4.60792 11.25,-0.4921 c 6.1875,-0.27066 12.2625,-0.82171 13.5,-1.22456 l 2.25,-0.73245 0,15.11663 0,15.11663 -30.02568,0 -30.02568,0 1.52568,-2.95034 z m 114.6913,1.20034 c -0.49761,-0.9625 -9.12393,-20.875 -19.16959,-44.25 -10.04566,-23.375 -19.57557,-44.1875 -21.17756,-46.25 l -2.91272,-3.75 34.65412,0 c 27.3012,0 34.5568,0.26522 34.19552,1.25 -0.25223,0.6875 -2.43787,6.53218 -4.85699,12.98819 l -4.3984,11.73819 -7.35699,0.0118 c -5.46388,0.009 -7.23702,0.33346 -6.89077,1.26181 0.25643,0.6875 2.17097,5.975 4.25454,11.75 2.08358,5.775 4.09804,10.85362 4.47659,11.28582 0.37855,0.4322 4.92465,-10.70291 10.10245,-24.74468 l 9.41418,-25.5305 39.75,-0.005 39.75,-0.006 0,15.06739 0,15.06739 -2.25,-0.72178 c -5.50972,-1.76746 -9.77507,-2.3669 -17,-2.38914 l -7.75,-0.0239 0,4.86133 c 0,4.46755 0.18225,4.83594 2.25,4.54798 1.2375,-0.17234 5.0625,-0.51727 8.5,-0.7665 l 6.25,-0.45315 0,12.83536 0,12.83537 -3.2434,-0.9302 c -1.78387,-0.5116 -5.60887,-0.93019 -8.5,-0.93019 l -5.2566,0 0,5.5 0,5.5 6.28207,0 c 5.50663,0 9.98478,-0.85476 18.46793,-3.52502 l 2.25,-0.70824 0,15.11663 0,15.11663 -29.94897,0 -29.94898,0 1.46264,-3.50058 c 1.20166,-2.87598 1.41559,-9.30028 1.19897,-36.00464 L 737.5,371.90392 l -15.33269,36.00463 -15.3327,36.00463 -10.38212,0 c -8.8764,0 -10.51334,-0.2538 -11.28687,-1.75 z m 112.51699,-0.5 c 1.10749,-3.04855 1.04651,-89.77844 -0.0647,-92.06548 -0.84192,-1.73276 0.22889,-1.80111 23.5,-1.5 22.96367,0.29713 24.67875,0.44976 29.48094,2.62359 17.21307,7.79192 23.47914,30.00925 12.87202,45.63972 l -2.57336,3.79206 2.30126,1.5832 c 7.15046,4.9193 12.22295,13.80963 13.9106,24.38049 1.39755,8.75375 2.49602,13.9926 3.36457,16.04642 0.68919,1.6297 -0.512,1.75 -17.47391,1.75 -16.97878,0 -18.16079,-0.11868 -17.42962,-1.75 1.79883,-4.0134 1.61877,-10.95905 -0.38544,-14.86809 -2.85953,-5.5772 -10.13845,-11.38191 -14.27258,-11.38191 -1.57937,0 -0.69388,23.61851 0.94701,25.2594 0.62733,0.62733 1.1406,1.5006 1.1406,1.9406 0,0.44 -8.13032,0.8 -18.06739,0.8 l -18.06739,0 0.81739,-2.25 z m 37.89918,-51.75 c 2.59012,0 5.41821,-3.85688 5.41821,-7.38922 0,-4.502 -2.66013,-7.53713 -7.25,-8.27204 l -3.75,-0.60042 0,7.96417 c 0,8.27993 0.45373,9.72111 2.77955,8.82861 0.76122,-0.29211 2.02222,-0.5311 2.80224,-0.5311 z m 123.06122,52.25 c 0.47135,-0.9625 0.85699,-21.775 0.85699,-46.25 0,-24.475 -0.38564,-45.2875 -0.85699,-46.25 -0.80633,-1.64656 0.89306,-1.75 28.75,-1.75 l 29.60699,0 0,14.40213 0,14.40213 -4.6589,-1.40213 c -2.5624,-0.77117 -8.6374,-1.40213 -13.50003,-1.40213 l -8.84107,0 0,5.10262 0,5.10261 8.50014,-0.35261 8.50016,-0.35262 -2e-4,12.68019 -10e-5,12.6802 -3.2434,-0.9302 c -1.7839,-0.5116 -5.60887,-0.93019 -8.5,-0.93019 l -5.2566,0 0,4.58605 0,4.58606 11.25,-0.43993 c 6.1875,-0.24196 12.2625,-0.78317 13.5,-1.20268 l 2.25,-0.76276 0,15.11663 0,15.11663 -29.60699,0 c -27.85694,0 -29.55633,-0.10344 -28.75,-1.75 z m -239.42676,-195 c -4.36384,-7.5625 -15.59842,-27.025 -24.96573,-43.25 -9.3673,-16.225 -17.92975,-31.075 -19.02766,-33 -4.71368,-8.26464 -13.332,-23.22672 -18.72034,-32.5 -3.19584,-5.5 -9.05013,-15.625 -13.00955,-22.5 -3.95941,-6.875 -11.48643,-19.925 -16.72671,-29 -5.24028,-9.075 -17.45037,-30.225 -27.13354,-47 l -17.60576,-30.5 23.71675,-0.26864 c 13.04421,-0.14776 24.21716,-0.0766 24.82878,0.15808 0.61162,0.2347 17.23236,28.39017 36.93499,62.56772 28.14734,48.82635 36.07317,61.86264 36.99075,60.84191 0.64229,-0.71449 3.87117,-6.02407 7.17528,-11.79907 3.30411,-5.775 18.83191,-32.775 34.50622,-60 C 787.46359,-10.79353 799,-30.99321 799,-31.57254 c 0,-0.28285 -65.25,-0.51428 -145,-0.51428 -79.75,0 -145,-0.28231 -145,-0.62736 0,-0.34505 5.44383,-10.02005 12.09739,-21.500002 l 12.0974,-20.872638 194.4026,0 c 106.92144,0 194.40261,0.29795 194.40261,0.66211 0,0.364161 -1.9846,4.076661 -4.41022,8.25 -5.98498,10.2973 -90.98826,157.63192 -105.34231,182.58789 -16.41813,28.54457 -44.40507,77.00872 -52.26169,90.5 -3.68335,6.325 -12.19887,21.0625 -18.92337,32.75 -6.7245,11.6875 -12.60561,21.25 -13.06913,21.25 -0.46352,0 -4.41318,-6.1875 -8.77703,-13.75 z"
       id="path3076"
       inkscape:connector-curvature="0" />
    <path
       style="fill:#cbccda"
       d="m 909,444.44435 c -15.08589,-4.3246 -26.33158,-13.98736 -32.49293,-27.91926 -9.46345,-21.39854 -2.45655,-47.99351 15.84649,-60.14604 10.44581,-6.93563 14.09652,-7.81197 34.39644,-8.25675 l 18.25,-0.39987 0,17.09538 c 0,9.40245 -0.3928,17.09537 -0.87288,17.09537 -0.48009,0 -2.84259,-0.86911 -5.25,-1.93137 -6.79824,-2.99966 -16.79343,-4.43753 -21.68707,-3.11981 -11.00817,2.9642 -17.36755,16.51058 -12.83901,27.34892 2.96714,7.10137 12.94053,12.62055 20.30819,11.23837 C 927.78896,414.86215 928,414.56861 928,410.80257 l 0,-4.01998 -7.75,0.22786 -7.75,0.22785 -0.28287,-11.79413 -0.28288,-11.79414 3.15788,0.63158 c 1.73683,0.34736 11.65162,0.63157 22.03287,0.63157 l 18.875,0 0,21.56574 c 0,14.1748 0.38898,22.29256 1.13499,23.6865 0.97664,1.82486 0.73247,2.45631 -1.75,4.5258 -3.98702,3.32376 -13.71513,7.84287 -20.84509,9.68341 -7.09622,1.83183 -19.27698,1.86508 -25.5399,0.0697 z m -456.35699,-2.28117 c 0.47134,-0.9625 0.98696,-16.4875 1.14581,-34.5 l 0.28882,-32.75 -5.29542,0 c -2.91248,0 -6.75495,0.41859 -8.53882,0.93019 l -3.2434,0.9302 0,-14.4302 0,-14.43019 24,0 24,0 0,48 0,48 -16.60699,0 c -15.47598,0 -16.54862,-0.11918 -15.75,-1.75 z m 37.35699,-46.25 0,-48 21,0 21,0 0,14.60699 c 0,13.51352 -0.131,14.55417 -1.75,13.90147 -0.9625,-0.38804 -3.4375,-0.94544 -5.5,-1.23866 l -3.75,-0.53314 0,5.13167 0,5.13167 7.5,0 7.5,0 0,-18.5 0,-18.5 15.5,0 15.5,0 0,48 0,48 -16.60699,0 c -15.47409,0 -16.54886,-0.11938 -15.75497,-1.75 0.46862,-0.9625 0.98775,-9.0625 1.15364,-18 l 0.30161,-16.25 -7.59329,0 -7.59329,0 0.30161,16.25 c 0.16589,8.9375 0.68502,17.0375 1.15364,18 0.79389,1.63062 -0.28088,1.75 -15.75497,1.75 l -16.60699,0 0,-48 z m 80.67778,45.76522 c 1.09518,-3.01723 1.0624,-89.77477 -0.0348,-92.01522 -0.80633,-1.64656 0.89306,-1.75 28.75,-1.75 l 29.60702,0 0,14.11663 0,14.11663 -2.25,-0.73245 c -1.2375,-0.40285 -7.3125,-0.9539 -13.5,-1.22456 l -11.25,-0.4921 0,5.75296 0,5.75296 6.75,-0.57271 c 3.7125,-0.315 7.5375,-0.87841 8.5,-1.25203 1.6121,-0.62578 1.75,0.35154 1.75,12.40293 l 0,13.08224 -2.5651,-0.97525 c -1.4108,-0.53639 -5.2358,-0.97525 -8.5,-0.97525 l -5.9349,0 -10e-4,4.75 -10e-4,4.75 11.7512,-0.60705 c 6.46317,-0.33387 12.55104,-0.94925 13.52862,-1.3675 1.66441,-0.71212 1.75977,0.18468 1.5,14.10704 l -0.27782,14.86751 -29.32222,0.26522 -29.32222,0.26522 0.82222,-2.26522 z m 113.86083,-1.01522 C 671.48109,409.44437 646.43346,352.93903 644.9545,351.36475 643.87952,350.22049 643,348.97578 643,348.59873 c 0,-0.37705 15.3,-0.68555 34,-0.68555 18.7,0 34,0.1202 34,0.26711 0,0.14691 -2.16237,5.88441 -4.80526,12.75 l -4.80526,12.48289 -7.19474,0.29381 C 690.23763,373.86858 687,374.16959 687,374.3759 c 0,0.20631 2.09184,6.08772 4.64853,13.06982 l 4.64853,12.69471 9.69655,-25.86362 9.69655,-25.86363 39.65492,-0.26147 39.65492,-0.26148 0,14.62805 0,14.62805 -2.75,-0.66626 c -1.5125,-0.36645 -7.5875,-0.92671 -13.5,-1.24503 l -10.75,-0.57876 0,5.27349 0,5.27348 6.75,-0.57271 c 3.7125,-0.315 7.5375,-0.87841 8.5,-1.25203 1.60955,-0.62479 1.75,0.32364 1.75,11.81702 l 0,12.49633 -8.5,-0.5303 -8.5,-0.53029 0,5.64095 0,5.64096 6.91091,0 c 4.10253,0 9.48691,-0.80749 13.25,-1.9871 3.4865,-1.0929 6.46362,-1.9929 6.61582,-2 0.15221,-0.007 0.15221,6.6246 0,14.7371 l -0.27673,14.75 -29.7834,0.26493 -29.7834,0.26493 1.54691,-2.99139 c 1.32151,-2.55552 1.50851,-7.83502 1.2834,-36.23261 l -0.26351,-33.2412 -15.39441,36.21767 -15.3944,36.21767 -10.40662,0 -10.40662,0 -1.35934,-3.25 z m 113.1044,1.5 c 1.30315,-2.66107 1.6265,-89.8779 0.34212,-92.27778 -1.03563,-1.93509 -0.64264,-1.97222 20.87435,-1.97222 19.14229,0 22.75718,0.25554 28.43851,2.01032 8.32894,2.57255 15.49312,8.77452 18.72521,16.21025 4.29163,9.87329 2.57616,25.03971 -3.60475,31.86954 -1.36495,1.50826 -0.95732,2.21102 4.3761,7.54444 6.7482,6.7482 9.49587,13.32593 11.20185,26.81638 0.553,4.37301 1.45504,8.40051 2.00453,8.95 0.54949,0.54949 0.99907,1.35907 0.99907,1.79907 0,0.44 -8.1,0.8 -18,0.8 -16.26114,0 -20.15492,-0.55015 -17.12916,-2.42017 1.57307,-0.97221 2.15354,-6.77559 1.07744,-10.77191 -1.69441,-6.29257 -10.80868,-14.80792 -15.84941,-14.80792 -1.60481,0 -1.34069,19.57641 0.32718,24.25 l 1.33827,3.75 -17.98915,0 c -16.79233,0 -17.93213,-0.11643 -17.13216,-1.75 z M 835.87189,389.808 C 839.63295,388.49688 841,386.29587 841,381.5515 c 0,-4.17514 -3.68831,-7.63832 -8.13486,-7.63832 l -2.86514,0 0,8.5 c 0,9.26419 0.11043,9.40327 5.87189,7.39482 z m 122.77112,52.35518 c 1.30315,-2.66107 1.6265,-89.8779 0.34212,-92.27778 -1.03947,-1.94227 -0.60692,-1.97222 28.47969,-1.97222 l 29.53518,0 0,14.11663 0,14.11663 -2.25,-0.73245 c -1.2375,-0.40285 -7.3125,-0.9539 -13.5,-1.22456 l -11.25,-0.4921 0,5.75296 0,5.75296 6.75,-0.57271 c 3.7125,-0.315 7.5375,-0.87841 8.5,-1.25203 1.6121,-0.62578 1.75,0.35154 1.75,12.40293 l 0,13.08224 -2.5651,-0.97525 c -1.4108,-0.53639 -5.2358,-0.97525 -8.5,-0.97525 l -5.9349,0 0,4.33333 c 0,2.38334 0.18677,4.52084 0.41504,4.75 0.65988,0.66248 22.89816,-0.72733 24.83496,-1.55209 1.6223,-0.69085 1.75,0.35694 1.75,14.36177 l 0,15.10699 -29.60699,0 c -27.85694,0 -29.55633,-0.10344 -28.75,-1.75 z m -232.01484,-182.5 c -0.3222,-0.6875 -1.72322,-3.05 -3.11338,-5.25 -1.39016,-2.2 -3.21294,-5.35 -4.05063,-7 -0.83768,-1.65 -2.34605,-4.35 -3.35193,-6 -2.43472,-3.99382 -5.74593,-9.79367 -9.42005,-16.5 -1.65727,-3.025 -4.43085,-7.75 -6.1635,-10.5 -1.73265,-2.75 -3.45089,-5.675 -3.8183,-6.5 -0.36742,-0.825 -1.79012,-3.3 -3.16157,-5.5 -1.37145,-2.2 -3.1842,-5.35 -4.02834,-7 -0.84415,-1.65 -2.63343,-4.8 -3.97619,-7 -1.34276,-2.2 -2.90676,-4.9 -3.47554,-6 -0.56878,-1.1 -2.1545,-3.8 -3.52381,-6 -1.36932,-2.2 -3.17505,-5.35 -4.01274,-7 -0.83769,-1.65 -2.49051,-4.575 -3.67292,-6.5 -1.18241,-1.925 -3.49753,-5.975 -5.14471,-9 -1.64718,-3.025 -3.60681,-6.21043 -4.35472,-7.07874 C 660.61193,145.96613 660,144.8909 660,144.44504 c 0,-0.44587 -1.41804,-3.11043 -3.15119,-5.92126 -1.73316,-2.81083 -4.04692,-6.6856 -5.14168,-8.6106 -1.09477,-1.925 -2.81348,-4.85 -3.81936,-6.5 -1.00588,-1.65 -2.50808,-4.35 -3.33822,-6 -0.83014,-1.65 -1.93681,-3.675 -2.45928,-4.5 -0.52247,-0.825 -2.66901,-4.42353 -4.7701,-7.99673 -2.1011,-3.57321 -4.35569,-7.39821 -5.01021,-8.5 -0.65452,-1.1018 -1.88297,-3.35327 -2.7299,-5.00327 -0.84692,-1.65 -1.98129,-3.675 -2.52082,-4.5 -1.59402,-2.43743 -8.63207,-14.47471 -9.38386,-16.04937 -0.38092,-0.79785 -1.52495,-2.80063 -2.5423,-4.45063 -1.74999,-2.83825 -2.65228,-4.39117 -8.13434,-14 -1.25516,-2.2 -3.10509,-5.35 -4.11097,-7 -1.00588,-1.65 -2.52035,-4.35 -3.36549,-6 -0.84514,-1.65 -2.54589,-4.67684 -3.77945,-6.7263 -1.23356,-2.04947 -3.53068,-6.09947 -5.10473,-9 -1.57404,-2.90054 -3.37404,-5.9487 -4,-6.7737 C 584.80445,14.49645 583,11.02247 583,9.90897 583,9.22161 591.04643,8.96693 607.12512,9.1454 l 24.12512,0.26778 35.77454,62 c 19.676,34.1 36.1572,61.94321 36.62488,61.8738 0.93018,-0.13804 1.22098,-0.63292 42.5278,-72.3738 C 787.3557,-10.60437 799,-30.9921 799,-31.57254 c 0,-0.28285 -65.25,-0.51428 -145,-0.51428 -79.75,0 -145,-0.28231 -145,-0.62736 0,-0.34505 5.44383,-10.02005 12.09739,-21.500002 l 12.0974,-20.872638 194.4026,0 c 106.92144,0 194.40261,0.211313 194.40261,0.469584 0,0.603639 -2.84912,5.654334 -6.84881,12.141015 -1.73315,2.810829 -3.15119,5.475396 -3.15119,5.921259 0,0.445863 -0.61193,1.521094 -1.35984,2.389401 -0.74791,0.868308 -2.70663,4.053741 -4.3527,7.078741 -1.64608,3.025 -4.03266,7.3 -5.30352,9.5 -1.27086,2.2 -2.93544,5.125 -3.69906,6.5 -0.76362,1.375 -2.49789,4.3 -3.85393,6.5 -1.35605,2.2 -2.89997,4.9 -3.43095,6 -0.53098,1.1 -2.09341,3.8 -3.47206,6 -1.37866,2.2 -2.99277,5.12418 -3.5869,6.49817 -0.59414,1.37399 -1.66085,3.17399 -2.37048,4 -0.70964,0.82601 -2.63794,3.97683 -4.28512,7.00183 -1.64718,3.025 -3.84775,6.91811 -4.89016,8.65135 -1.92456,3.20002 -8.12697,13.97796 -11.7101,20.34865 -1.0827,1.925 -2.78065,4.85 -3.77324,6.5 -0.99258,1.65 -2.43031,4.125 -3.19496,5.5 -0.76464,1.375 -2.42696,4.3 -3.69404,6.5 -1.26707,2.2 -3.20434,5.575 -4.30504,7.5 -1.10069,1.925 -2.83955,4.85 -3.86414,6.5 -1.02458,1.65 -2.54826,4.35 -3.38595,6 -0.83769,1.65 -2.64342,4.8 -4.01274,7 -1.36931,2.2 -2.95503,4.9 -3.52381,6 -0.56878,1.1 -2.0235,3.64332 -3.23271,5.65183 -6.06571,10.07522 -12.70812,21.59878 -15.18762,26.34817 -0.86141,1.65 -2.68654,4.8 -4.05586,7 -1.36931,2.2 -2.92409,4.9 -3.45507,6 -0.53098,1.1 -2.10107,3.8 -3.48909,6 -1.38803,2.2 -3.20906,5.35 -4.04675,7 -0.83768,1.65 -2.47519,4.575 -3.63889,6.5 -1.16371,1.925 -3.46353,5.975 -5.11071,9 -1.64718,3.025 -3.51979,6.175 -4.16136,7 -0.64156,0.825 -1.70632,2.625 -2.36613,4 -0.6598,1.375 -2.33134,4.3 -3.71453,6.5 -1.38319,2.2 -2.82106,4.675 -3.19526,5.5 -0.3742,0.825 -1.68068,2.97521 -2.90329,4.77824 -1.2226,1.80303 -3.18531,5.17803 -4.36158,7.5 -1.17626,2.32197 -2.9465,5.57176 -3.93385,7.22176 -0.98736,1.65 -2.70109,4.575 -3.80828,6.5 -1.10719,1.925 -4.01251,6.875 -6.45626,11 -2.44375,4.125 -4.77309,8.175 -5.17631,9 -0.40322,0.825 -1.81837,3.3 -3.14478,5.5 -1.32641,2.2 -3.10289,5.35 -3.94773,7 -0.84485,1.65 -2.37438,4.35 -3.39896,6 -1.02459,1.65 -2.78432,4.62585 -3.91052,6.61299 -4.73606,8.3566 -5.4606,9.08437 -6.60755,6.63701 z"
       id="path3074"
       inkscape:connector-curvature="0" />
    <path
       style="fill:#f7a091"
       d="m 909,444.44435 c -15.08589,-4.3246 -26.33158,-13.98736 -32.49293,-27.91926 -9.46345,-21.39854 -2.45655,-47.99351 15.84649,-60.14604 10.44581,-6.93563 14.09652,-7.81197 34.39644,-8.25675 l 18.25,-0.39987 0,17.09538 c 0,9.40245 -0.3928,17.09537 -0.87288,17.09537 -0.48009,0 -2.84259,-0.86911 -5.25,-1.93137 -6.79824,-2.99966 -16.79343,-4.43753 -21.68707,-3.11981 -11.00817,2.9642 -17.36755,16.51058 -12.83901,27.34892 2.96714,7.10137 12.94053,12.62055 20.30819,11.23837 C 927.78896,414.86215 928,414.56861 928,410.80257 l 0,-4.01998 -7.75,0.22786 -7.75,0.22785 -0.28287,-11.79413 -0.28288,-11.79414 3.15788,0.63158 c 1.73683,0.34736 11.65162,0.63157 22.03287,0.63157 l 18.875,0 0,21.56574 c 0,14.1748 0.38898,22.29256 1.13499,23.6865 0.97664,1.82486 0.73247,2.45631 -1.75,4.5258 -3.98702,3.32376 -13.71513,7.84287 -20.84509,9.68341 -7.09622,1.83183 -19.27698,1.86508 -25.5399,0.0697 z m -456.35699,-2.28117 c 0.47134,-0.9625 0.98696,-16.4875 1.14581,-34.5 l 0.28882,-32.75 -5.29542,0 c -2.91248,0 -6.75495,0.41859 -8.53882,0.93019 l -3.2434,0.9302 0,-14.4302 0,-14.43019 24,0 24,0 0,48 0,48 -16.60699,0 c -15.47598,0 -16.54862,-0.11918 -15.75,-1.75 z m 37.35699,-46.25 0,-48 21,0 21,0 0,14.60699 c 0,13.51352 -0.131,14.55417 -1.75,13.90147 -0.9625,-0.38804 -3.4375,-0.94544 -5.5,-1.23866 l -3.75,-0.53314 0,5.13167 0,5.13167 7.5,0 7.5,0 0,-18.5 0,-18.5 15.5,0 15.5,0 0,48 0,48 -16.60699,0 c -15.47409,0 -16.54886,-0.11938 -15.75497,-1.75 0.46862,-0.9625 0.98775,-9.0625 1.15364,-18 l 0.30161,-16.25 -7.59329,0 -7.59329,0 0.30161,16.25 c 0.16589,8.9375 0.68502,17.0375 1.15364,18 0.79389,1.63062 -0.28088,1.75 -15.75497,1.75 l -16.60699,0 0,-48 z m 80.67778,45.76522 c 1.09518,-3.01723 1.0624,-89.77477 -0.0348,-92.01522 -0.80633,-1.64656 0.89306,-1.75 28.75,-1.75 l 29.60702,0 0,14.11663 0,14.11663 -2.25,-0.73245 c -1.2375,-0.40285 -7.3125,-0.9539 -13.5,-1.22456 l -11.25,-0.4921 0,5.75296 0,5.75296 6.75,-0.57271 c 3.7125,-0.315 7.5375,-0.87841 8.5,-1.25203 1.6121,-0.62578 1.75,0.35154 1.75,12.40293 l 0,13.08224 -2.5651,-0.97525 c -1.4108,-0.53639 -5.2358,-0.97525 -8.5,-0.97525 l -5.9349,0 -10e-4,4.75 -10e-4,4.75 11.7512,-0.60705 c 6.46317,-0.33387 12.55104,-0.94925 13.52862,-1.3675 1.66441,-0.71212 1.75977,0.18468 1.5,14.10704 l -0.27782,14.86751 -29.32222,0.26522 -29.32222,0.26522 0.82222,-2.26522 z m 113.86083,-1.01522 C 671.48109,409.44437 646.43346,352.93903 644.9545,351.36475 643.87952,350.22049 643,348.97578 643,348.59873 c 0,-0.37705 15.3,-0.68555 34,-0.68555 18.7,0 34,0.1202 34,0.26711 0,0.14691 -2.16237,5.88441 -4.80526,12.75 l -4.80526,12.48289 -7.19474,0.29381 C 690.23763,373.86858 687,374.16959 687,374.3759 c 0,0.20631 2.09184,6.08772 4.64853,13.06982 l 4.64853,12.69471 9.69655,-25.86362 9.69655,-25.86363 39.65492,-0.26147 39.65492,-0.26148 0,14.62805 0,14.62805 -2.75,-0.66626 c -1.5125,-0.36645 -7.5875,-0.92671 -13.5,-1.24503 l -10.75,-0.57876 0,5.27349 0,5.27348 6.75,-0.57271 c 3.7125,-0.315 7.5375,-0.87841 8.5,-1.25203 1.60955,-0.62479 1.75,0.32364 1.75,11.81702 l 0,12.49633 -8.5,-0.5303 -8.5,-0.53029 0,5.64095 0,5.64096 6.91091,0 c 4.10253,0 9.48691,-0.80749 13.25,-1.9871 3.4865,-1.0929 6.46362,-1.9929 6.61582,-2 0.15221,-0.007 0.15221,6.6246 0,14.7371 l -0.27673,14.75 -29.7834,0.26493 -29.7834,0.26493 1.54691,-2.99139 c 1.32151,-2.55552 1.50851,-7.83502 1.2834,-36.23261 l -0.26351,-33.2412 -15.39441,36.21767 -15.3944,36.21767 -10.40662,0 -10.40662,0 -1.35934,-3.25 z m 113.1044,1.5 c 1.30315,-2.66107 1.6265,-89.8779 0.34212,-92.27778 -1.03563,-1.93509 -0.64264,-1.97222 20.87435,-1.97222 19.14229,0 22.75718,0.25554 28.43851,2.01032 8.32894,2.57255 15.49312,8.77452 18.72521,16.21025 4.29163,9.87329 2.57616,25.03971 -3.60475,31.86954 -1.36495,1.50826 -0.95732,2.21102 4.3761,7.54444 6.7482,6.7482 9.49587,13.32593 11.20185,26.81638 0.553,4.37301 1.45504,8.40051 2.00453,8.95 0.54949,0.54949 0.99907,1.35907 0.99907,1.79907 0,0.44 -8.1,0.8 -18,0.8 -16.26114,0 -20.15492,-0.55015 -17.12916,-2.42017 1.57307,-0.97221 2.15354,-6.77559 1.07744,-10.77191 -1.69441,-6.29257 -10.80868,-14.80792 -15.84941,-14.80792 -1.60481,0 -1.34069,19.57641 0.32718,24.25 l 1.33827,3.75 -17.98915,0 c -16.79233,0 -17.93213,-0.11643 -17.13216,-1.75 z M 835.87189,389.808 C 839.63295,388.49688 841,386.29587 841,381.5515 c 0,-4.17514 -3.68831,-7.63832 -8.13486,-7.63832 l -2.86514,0 0,8.5 c 0,9.26419 0.11043,9.40327 5.87189,7.39482 z m 122.77112,52.35518 c 1.30315,-2.66107 1.6265,-89.8779 0.34212,-92.27778 -1.03947,-1.94227 -0.60692,-1.97222 28.47969,-1.97222 l 29.53518,0 0,14.11663 0,14.11663 -2.25,-0.73245 c -1.2375,-0.40285 -7.3125,-0.9539 -13.5,-1.22456 l -11.25,-0.4921 0,5.75296 0,5.75296 6.75,-0.57271 c 3.7125,-0.315 7.5375,-0.87841 8.5,-1.25203 1.6121,-0.62578 1.75,0.35154 1.75,12.40293 l 0,13.08224 -2.5651,-0.97525 c -1.4108,-0.53639 -5.2358,-0.97525 -8.5,-0.97525 l -5.9349,0 0,4.33333 c 0,2.38334 0.18677,4.52084 0.41504,4.75 0.65988,0.66248 22.89816,-0.72733 24.83496,-1.55209 1.6223,-0.69085 1.75,0.35694 1.75,14.36177 l 0,15.10699 -29.60699,0 c -27.85694,0 -29.55633,-0.10344 -28.75,-1.75 z m -269.0984,-247 c -20.85694,-36.1625 -49.60059,-86 -63.87477,-110.75 C 611.39566,59.66318 595.95551,32.949 591.35839,25.04833 586.76128,17.14766 583,10.27716 583,9.78055 583,9.26086 593.2413,8.99128 607.12888,9.1454 l 24.12888,0.26778 36.12112,62.67344 c 19.86662,34.4704 36.42775,62.3704 36.80253,62 0.37477,-0.37039 16.50599,-28.12344 35.84715,-61.67344 19.34117,-33.55 40.49874,-70.24 47.01684,-81.53334 6.5181,-11.29334 12.14752,-21.30584 12.50983,-22.25 0.62064,-1.61736 -7.74009,-1.71666 -144.53157,-1.71666 -89.96988,0 -145.06355,-0.35676 -144.85699,-0.93804 C 510.35,-34.54078 515.675,-43.98298 522,-55.007539 l 11.5,-20.044647 194.25,-0.01732 c 106.8375,-0.0095 194.25,0.156645 194.25,0.369262 0,0.369175 -23.13411,40.509384 -128.29935,222.613424 -25.88647,44.825 -51.12914,88.5875 -56.0948,97.25 -4.96567,8.6625 -9.27848,15.75 -9.58401,15.75 -0.30554,0 -17.62029,-29.5875 -38.47723,-65.75 z"
       id="path3072"
       inkscape:connector-curvature="0" />
    <path
       style="fill:#f88974"
       d="m 909.11233,444.40049 c -8.77882,-2.47149 -16.73382,-7.32781 -23.03169,-14.06026 -6.9006,-7.37676 -10.6739,-14.82097 -12.82792,-25.30775 -4.22217,-20.55547 6.52888,-42.90886 24.93834,-51.8513 8.79556,-4.27246 14.72157,-5.268 31.35816,-5.268 l 14.45078,0 0,16.95519 0,16.95518 -6.49945,-2.44638 c -15.91345,-5.98981 -26.91462,-3.41331 -32.5444,7.62196 -2.16771,4.24906 -2.59017,12.10579 -0.89253,16.59895 3.22806,8.54377 16.21489,14.91233 23.00212,11.27992 1.34099,-0.71768 1.93426,-2.0979 1.93426,-4.5 l 0,-3.46482 -8,0 -8,0 0,-11.60699 c 0,-10.17321 0.19539,-11.53201 1.58179,-11 0.86998,0.33385 10.31998,0.60699 21,0.60699 l 19.41821,0 0.0239,18.75 c 0.0218,17.13212 0.52331,22.80389 2.42078,27.37727 0.94942,2.28834 -9.73062,9.25539 -18.29471,11.93443 -8.8425,2.76613 -22.90529,3.43356 -30.0376,1.42561 z m -456.37349,-2.48731 c 0.41864,-0.825 0.88555,-16.2375 1.03758,-34.25 l 0.27643,-32.75 -5.96133,0 c -3.27873,0 -7.11562,0.43886 -8.52642,0.97525 l -2.5651,0.97525 0,-14.47525 0,-14.47525 24.0097,0 24.00969,0 -0.25969,47.55183 -0.2597,47.55183 -16.26116,0.19817 c -14.1676,0.17266 -16.16316,0.005 -15.5,-1.30183 z m 53.51116,1.22523 -16.25,-0.27477 0,-47.47523 0,-47.47523 21,0 21,0 0,14.00874 0,14.00873 -5.5,-0.64642 -5.5,-0.64641 0,5.17974 0,5.17975 7.75,-0.29207 7.75,-0.29206 0.27256,-18.25 0.27256,-18.25 14.97744,0 14.97744,0 0,47.75 0,47.75 -16.5,0 c -9.075,0 -16.5,-0.2475 -16.5,-0.55 0,-0.3025 0.5625,-1.11166 1.25,-1.79813 0.86451,-0.86322 1.35419,-6.16752 1.58786,-17.2 l 0.33786,-15.95187 -8.08786,0 -8.08786,0 0,15.56574 c 0,9.24257 0.43914,16.38628 1.08102,17.58565 0.59456,1.11095 0.93206,2.09386 0.75,2.18426 -0.18206,0.0904 -7.64352,0.0407 -16.58102,-0.11042 z m 64.48892,-1.22523 c 1.05433,-2.07797 0.96283,-90.08802 -0.0959,-92.25 -0.80633,-1.64656 0.89306,-1.75 28.75,-1.75 l 29.60698,0 0,14.11663 0,14.11663 -2.25,-0.73245 c -1.2375,-0.40285 -7.3125,-0.9539 -13.5,-1.22456 l -11.25,-0.4921 0,5.74229 0,5.74229 6.75,-0.52352 c 3.7125,-0.28793 7.5375,-0.84654 8.5,-1.24135 1.6113,-0.66094 1.75,0.26716 1.75,11.70989 l 0,12.42772 -8.5,-0.44614 -8.5,-0.44613 0,5.1254 0,5.1254 6.86351,0 c 6.61938,0 14.71897,-1.12093 18.4139,-2.54836 1.661,-0.64168 1.75924,0.2727 1.5,13.96283 l -0.27741,14.64948 -29.26108,0.21802 c -25.72811,0.19171 -29.16918,0.0369 -28.5,-1.28197 z m 114.19882,-1 c -0.63517,-1.375 -9.00287,-20.725 -18.5949,-43 -9.59202,-22.275 -18.74958,-42.6375 -20.35014,-45.25 l -2.91009,-4.75 33.94466,0 33.94466,0 -1.97197,5.25 c -1.08458,2.8875 -3.2702,8.625 -4.85693,12.75 l -2.88495,7.5 -7.12904,0.29381 C 690.20807,373.86858 687,374.26865 687,374.59602 c 0,1.03843 8.29755,23.78382 8.96168,24.56591 0.3497,0.41181 4.94704,-10.83819 10.21632,-25 l 9.5805,-25.74875 39.37075,0 39.37075,0 0.2782,14.37197 0.2782,14.37197 -2.7782,-0.70076 c -1.52801,-0.38542 -7.6157,-0.94009 -13.5282,-1.2326 l -10.75,-0.53183 0,5.24499 0,5.24499 6.75,-0.52352 c 3.7125,-0.28793 7.5375,-0.84654 8.5,-1.24135 1.6116,-0.66107 1.75,0.27043 1.75,11.77849 l 0,12.49633 -8.5,-0.5303 -8.5,-0.53029 0,5.64095 0,5.64096 7.34107,0 c 6.48137,0 12.19361,-1.1138 17.93634,-3.4973 1.66296,-0.69021 1.75954,0.20554 1.5,13.91177 l -0.27741,14.64948 -29.26108,0.21802 c -25.72811,0.19171 -29.16918,0.0369 -28.5,-1.28197 0.41859,-0.825 0.86431,-17.25 0.99047,-36.5 l 0.22939,-35 -14.9373,35 c -8.21551,19.25 -15.29374,35.59652 -15.72939,36.32559 -0.56324,0.94262 -3.74008,1.37599 -10.99579,1.5 -9.98442,0.17066 -10.22853,0.12068 -11.35856,-2.32559 z m 112.07732,2.5 c 0.008,0 0.66353,-1.8 1.4561,-4 2.05499,-5.70414 2.12096,-82.09339 0.0759,-87.82836 l -1.36521,-3.82835 23.6591,0.32835 23.6591,0.32836 6.30822,2.91269 c 11.36963,5.24969 17.33628,14.81938 17.34583,27.82032 0.005,6.76341 -1.86164,13.14323 -5.22911,17.8724 l -2.11715,2.97326 4.64344,4.08732 c 7.08172,6.23357 10.55589,14.14631 12.51615,28.5066 0.51258,3.75508 1.20268,7.72741 1.53355,8.82741 0.58513,1.94532 0.13544,2 -16.44968,2 -9.37824,0 -17.0513,-0.17279 -17.0513,-0.38398 0,-0.21119 0.52123,-2.12369 1.15829,-4.25 0.88899,-2.96718 0.87532,-4.81046 -0.0588,-7.92819 -1.98794,-6.63525 -10.67724,-14.93783 -15.63358,-14.93783 -1.44319,0 -1.5828,1.36834 -1.19885,11.75 0.239,6.4625 0.74975,12.65 1.135,13.75 0.68316,1.95064 0.26727,2 -16.85081,2 -9.65319,0 -17.54447,0 -17.53619,0 z m 42.10897,-55.11224 C 840.40102,387.14527 841,385.23906 841,382.33077 c 0,-3.4245 -0.52293,-4.68376 -2.63486,-6.34501 -1.44917,-1.13992 -3.92417,-2.07258 -5.5,-2.07258 l -2.86514,0 0,8.63084 0,8.63084 3.62403,-0.58809 c 1.99321,-0.32346 4.46821,-1.35208 5.5,-2.28583 z m 118.87595,54.42126 c 10e-6,-0.38004 0.45002,-0.9691 1.00002,-1.30902 1.39547,-0.86245 1.36162,-88.9558 -0.0352,-91.56574 -1.0126,-1.89205 -0.3907,-1.93426 28.5,-1.93426 l 29.5352,0 0,14.11663 0,14.11663 -2.25,-0.76276 c -1.2375,-0.41951 -7.3125,-0.96072 -13.5,-1.20268 l -11.25,-0.43993 0,5.58606 0,5.58605 5.2566,0 c 2.89113,0 6.7161,-0.41859 8.5,-0.93019 l 3.2434,-0.9302 0,12.25093 0,12.25093 -8.5,-0.44614 -8.5,-0.44613 0,5.1254 0,5.1254 6.86351,0 c 6.61939,0 14.71899,-1.12093 18.41389,-2.54836 1.661,-0.64168 1.7592,0.2727 1.5,13.96283 l -0.2774,14.64948 -29.25002,0.21802 c -16.08751,0.11992 -29.25001,-0.0929 -29.25,-0.47295 z M 715.352,239.62901 C 701.86125,216.06816 685.75666,188.12925 625.02241,82.9215 602.32355,43.60108 583.53446,10.86358 583.26889,10.1715 582.88916,9.18195 587.91224,8.91318 606.78608,8.91318 l 24.00006,0 36.32328,62.98365 c 19.9778,34.64101 36.64506,62.65351 37.03834,62.25 0.39328,-0.40351 16.53964,-28.18365 35.8808,-61.73365 19.34117,-33.55 40.49874,-70.24 47.01684,-81.53334 6.5181,-11.29334 12.14752,-21.30584 12.50983,-22.25 0.62064,-1.61736 -7.74009,-1.71666 -144.53157,-1.71666 -89.96988,0 -145.06355,-0.35676 -144.85699,-0.93804 C 510.35,-34.54078 515.675,-43.98298 522,-55.007539 l 11.5,-20.044647 194.34502,-0.01732 194.34502,-0.01732 -2.45777,4.25 c -9.48827,16.407221 -90.53216,156.82165 -96.53275,167.25 -4.11419,7.149996 -15.67359,27.174996 -25.68756,44.499996 -53.46355,92.49639 -67.61088,117.09422 -68.14148,118.47692 -0.32145,0.83769 -0.87381,1.5077 -1.22747,1.48891 -0.35365,-0.0188 -6.10961,-9.58129 -12.79101,-21.25 z"
       id="path3070"
       inkscape:connector-curvature="0" />
    <path
       style="fill:#f46951"
       d="m 911.51016,444.73796 c -17.47797,-3.33297 -33.27246,-18.82731 -37.53814,-36.82478 -2.82908,-11.93629 -0.67808,-27.00038 5.31583,-37.22821 3.39705,-5.79662 12.23086,-13.98747 18.52567,-17.17729 8.24666,-4.1789 16.17088,-5.56337 31.93648,-5.57972 l 14.25,-0.0148 0,16.94897 0,16.94898 -3.75,-1.58705 c -9.59437,-4.06045 -19.39117,-5.33789 -24.9349,-3.25136 -1.54831,0.58274 -4.51624,2.71239 -6.59542,4.73255 -12.08573,11.74268 -5.30369,32.38842 11.15909,33.97028 C 926.41693,416.30379 929,414.80356 929,410.378 l 0,-3.46482 -8,0 -8,0 -9.6e-4,-11.25 -9.7e-4,-11.25 21.00097,0.28861 21.00096,0.28861 0.006,19.71139 c 0.003,10.91785 0.48307,21.43104 1.07592,23.56612 0.94466,3.4021 0.82118,4.11996 -1.05157,6.11341 -3.2758,3.48694 -13.85747,8.20876 -22.3073,9.95412 -8.41872,1.73894 -13.68073,1.83879 -21.21247,0.40252 z M 452.96482,440.97892 C 453.6169,439.76049 454,427.13134 454,406.85352 l 0,-32.19114 -8.5,0.44613 -8.5,0.44614 0,-13.82074 0,-13.82073 24,0 24,0 0,47.5 0,47.5 -16.53518,0 c -16.03798,0 -16.50406,-0.0582 -15.5,-1.93426 z M 490,395.41318 l 0,-47.5 20.5,0 20.5,0 0,13.92775 0,13.92774 -5.5,-0.56765 -5.5,-0.56765 0,5.13991 0,5.1399 8.5,0 8.5,0 0,-18.5 0,-18.5 15,0 15,0 0,47.5 0,47.5 -16.10699,0 c -14.98766,0 -16.04965,-0.12161 -15.28185,-1.75 0.45383,-0.9625 0.98294,-8.8375 1.1758,-17.5 l 0.35066,-15.75 -8.65667,0 -8.65667,0 0.33786,15.84868 c 0.24632,11.55449 0.70972,16.2961 1.7103,17.5 1.26656,1.52391 0.0899,1.65132 -15.25,1.65132 l -16.62244,0 0,-47.5 z m 80.96482,45.56574 C 571.63302,439.73037 572,423.57712 572,395.41318 c 0,-28.16394 -0.36698,-44.31719 -1.03518,-45.56574 -1.01241,-1.8917 -0.39636,-1.93426 28,-1.93426 l 29.03518,0 0,13.91939 0,13.9194 -3.61747,-0.99884 c -1.98961,-0.54935 -7.95211,-1.07558 -13.25,-1.16939 l -9.63253,-0.17056 0,5.5 0,5.5 5.23309,0.30167 c 2.8782,0.16592 6.8157,-0.1353 8.75,-0.66939 L 619,383.07439 l 0,12.22737 0,12.22737 -9.0599,-0.43316 -9.05991,-0.43316 0.30991,4.87519 0.3099,4.87518 8,0.27282 c 4.51441,0.15395 10.28742,-0.32685 13.25,-1.10352 l 5.25,-1.37633 0,14.35352 0,14.35351 -29.03518,0 c -28.39636,0 -29.01241,-0.0426 -28,-1.93426 z m 114.70991,1.18426 c -0.24381,-0.4125 -8.87738,-20.325 -19.18571,-44.25 -10.30832,-23.925 -19.8333,-44.9625 -21.16661,-46.75 l -2.42419,-3.25 33.99986,0 33.99987,0 -1.30279,3.25 c -0.71653,1.7875 -2.93376,7.525 -4.92718,12.75 l -3.62439,9.5 -7.02179,-0.33206 C 688.29075,372.8101 687,373.02559 687,374.25338 c 0,1.81166 7.91289,23.81626 8.98174,24.97691 0.41386,0.44941 4.47178,-9.22559 9.01759,-21.5 4.54581,-12.27441 8.92947,-24.00461 9.74147,-26.06711 l 1.47636,-3.75 38.89142,0 38.89142,0 0,14.60699 c 0,13.54002 -0.12783,14.55037 -1.75,13.8319 -0.9625,-0.42629 -7.0375,-0.97183 -13.5,-1.21231 l -11.75,-0.43723 0,5.25334 0,5.25335 9,-0.58308 9,-0.58309 0,11.74304 0,11.74304 -9,-0.43029 -9,-0.4303 0,5.62232 0,5.62232 8.48927,0 c 5.92529,0 10.00265,-0.57504 13.5,-1.90393 L 794,414.10533 l 0,14.40392 0,14.40393 -29.03518,0 c -28.52214,0 -29.01666,-0.0346 -27.98683,-1.95888 0.68776,-1.28509 0.95784,-13.69405 0.78519,-36.07622 L 737.5,370.76074 l -15.37133,36.07622 -15.37133,36.07622 -10.31965,0 c -5.67581,0 -10.51914,-0.3375 -10.76296,-0.75 z m 112.45283,-0.90249 c 2.17012,-2.61295 2.56372,-84.75728 0.43057,-89.86262 l -1.52324,-3.64564 23.23255,0.37035 c 21.05224,0.3356 23.74872,0.57585 28.73256,2.56007 7.35059,2.9265 11.96309,6.91038 15.4852,13.37478 2.41595,4.43418 2.98693,6.8179 3.31884,13.85555 0.38642,8.19336 0.26938,8.75161 -3.24456,15.47461 l -3.64544,6.97461 4.05555,3.36876 c 6.91987,5.74804 11.16178,15.2069 12.86268,28.68202 0.48597,3.85 1.22066,7.7875 1.63264,8.75 0.69681,1.6279 -0.45195,1.75 -16.46491,1.75 -16.01688,0 -17.16117,-0.1217 -16.45461,-1.75 3.15062,-7.2607 -0.67001,-17.47054 -8.36343,-22.34956 C 830.3542,413.8494 830,414.19722 830,426.84808 c 0,6.0142 0.43886,12.0892 0.97525,13.5 l 0.97525,2.5651 -17.5977,0 c -16.25115,0 -17.49267,-0.12645 -16.22524,-1.65249 z m 39.71305,-51.94842 c 6.90254,-4.83473 3.8284,-14.77153 -4.84061,-15.6467 -2.47626,-0.24999 -2.50274,-0.16931 -2.78893,8.49761 l -0.28894,8.75 2.81643,0 c 1.54904,0 3.84496,-0.72041 5.10205,-1.60091 z m 121.8024,51.85091 c 0.47135,-0.9625 0.98348,-20.74347 1.13807,-43.95772 0.23616,-35.46138 0.0445,-42.77391 -1.19897,-45.75 l -1.48006,-3.54228 29.44898,0 29.44897,0 0,14.10699 c 0,13.03488 -0.133,14.05386 -1.75,13.40789 -3.0975,-1.23741 -15.1377,-2.63241 -20.01556,-2.31904 l -4.73444,0.30416 -0.2999,5.75 -0.29991,5.75 5.98481,0 c 3.29164,0 7.1391,-0.43886 8.5499,-0.97525 l 2.5651,-0.97525 0,12.29599 0,12.29598 -8.5,-0.44614 -8.5,-0.44613 0,5.1254 0,5.1254 8.28207,0 c 4.55513,0 10.63013,-0.60908 13.50003,-1.35351 l 5.2179,-1.35352 0,14.35352 0,14.35351 -29.10699,0 c -27.38075,0 -29.05616,-0.10379 -28.25,-1.75 z m -241.35883,-197 c -4.99416,-8.6625 -14.15105,-24.525 -20.34865,-35.25 C 644.27987,116.06164 583,9.64252 583,9.3152 583,9.09409 593.70543,8.91318 606.78985,8.91318 l 23.78985,0 36.36634,63.04382 c 20.00148,34.67409 36.71518,62.68659 37.14155,62.25 0.42637,-0.4366 16.59981,-28.24382 35.94097,-61.79382 19.34117,-33.55 40.49874,-70.24 47.01684,-81.53334 6.5181,-11.29334 12.14752,-21.30584 12.50983,-22.25 0.62064,-1.61736 -7.74009,-1.71666 -144.53157,-1.71666 -89.96988,0 -145.06355,-0.35676 -144.85699,-0.93804 C 510.35,-34.54078 515.675,-43.98298 522,-55.007539 l 11.5,-20.044647 194.33156,-0.01732 194.33156,-0.01732 -1.97706,3.25 c -1.08738,1.7875 -14.69669,25.3 -30.24291,52.25 -15.54621,26.95 -50.73807,87.925 -78.20413,135.499996 -27.46605,47.575 -57.40207,99.4375 -66.52449,115.25 -9.12241,15.8125 -16.87057,28.75 -17.21814,28.75 -0.34757,0 -4.71806,-7.0875 -9.71221,-15.75 z"
       id="path3068"
       inkscape:connector-curvature="0" />
    <path
       style="fill:#5668c1"
       d="m 913.66904,444.90079 c -16.8841,-2.95317 -30.89274,-14.18975 -37.24333,-29.87357 -3.27074,-8.07762 -4.37795,-21.92627 -2.41763,-30.23907 2.7904,-11.83277 10.30013,-22.65577 20.07033,-28.92528 8.66926,-5.56306 15.52925,-7.13185 33.67159,-7.70029 l 16.25,-0.50914 0,17.01363 0,17.01363 -6.25,-2.54549 c -4.1053,-1.672 -8.82364,-2.68929 -13.75,-2.96456 -7.0001,-0.39114 -7.81349,-0.21717 -12.20335,2.61012 -6.29018,4.05119 -9.19161,9.63243 -9.25146,17.79627 -0.0388,5.29266 0.3847,6.77552 2.9964,10.49151 4.0512,5.76416 9.5692,8.81141 15.95841,8.81287 6.63451,0.002 7.70849,-0.81581 7.3192,-5.57003 l -0.3192,-3.89821 -7.75,0.0497 -7.75,0.0497 -9.6e-4,-11.04972 -9.7e-4,-11.04973 21.00097,0.28861 21.00096,0.28861 0,20.31217 c 0,12.34508 0.43684,21.56528 1.11372,23.50699 1.40126,4.01965 0.0877,5.65161 -8.03245,9.97962 -9.7875,5.21668 -24.54459,7.83754 -34.41223,6.11161 z m -460.03632,-3.73761 c 0.46569,-0.9625 0.98714,-16.30814 1.1588,-34.10143 l 0.3121,-32.35143 -9.07887,0.35143 -9.07887,0.35143 0.27706,-13.5 0.27706,-13.5 23.25,-0.26843 23.25,-0.26843 0,47.51843 0,47.51843 -15.60699,0 c -14.51968,0 -15.548,-0.12192 -14.76029,-1.75 z m 36.36728,-45.75 0,-47.5 20.5,0 20.5,0 0,13.83227 0,13.83228 -5.5,-0.45611 -5.5,-0.4561 0,5.12383 0,5.12383 8.5,0 8.5,0 0,-18.5 0,-18.5 15,0 15,0 0,47.5 0,47.5 -15.97525,0 -15.97525,0 0.97525,-2.5651 c 0.53639,-1.4108 0.97525,-9.2858 0.97525,-17.5 l 0,-14.9349 -8.54775,0 -8.54774,0 0.30402,15.75 c 0.16721,8.6625 0.68684,16.5375 1.15473,17.5 0.79211,1.62945 -0.25887,1.75 -15.25627,1.75 l -16.10699,0 0,-47.5 z m 81.12756,45.84753 c 2.08546,-2.51098 2.56573,-83.30668 0.5303,-89.21454 l -1.42393,-4.13299 28.88304,0 28.88303,0 0,13.85351 0,13.85352 -5.25,-1.37633 c -2.96258,-0.77667 -8.73559,-1.25747 -13.25,-1.10352 l -8,0.27282 -0.30373,5.87822 -0.30373,5.87822 8.55373,-0.44895 8.55373,-0.44896 0,11.69951 0,11.6995 -4.42444,-0.94364 c -2.43344,-0.519 -6.14594,-0.80195 -8.25,-0.62877 l -3.82556,0.31487 -0.30606,5.35971 -0.30607,5.3597 11.30607,-0.49388 c 6.21833,-0.27164 12.31856,-0.82349 13.55606,-1.22634 l 2.25,-0.73245 0,14.11663 0,14.11663 -29.12244,0 c -26.96791,0 -29.02091,-0.12225 -27.75,-1.65247 z m 113.541,-1.59753 c -13.83654,-33.10705 -37.64795,-86.76049 -39.46011,-88.91412 l -2.38624,-2.83588 33.5889,0 c 18.47389,0 33.58737,0.3375 33.58552,0.75 -0.002,0.4125 -1.964,5.925 -4.36033,12.25 l -4.35696,11.5 -7.63967,0.29206 C 689.43785,372.86588 686,373.16689 686,373.37416 c 0,0.94688 9.36762,26.12789 9.9783,26.82257 0.37884,0.43095 5.1038,-11.15655 10.49991,-25.75 l 9.81111,-26.53355 38.85534,0 38.85534,0 0,14.60699 c 0,13.55161 -0.12644,14.54879 -1.75,13.80148 -0.9625,-0.44304 -7.0375,-0.97887 -13.5,-1.19074 l -11.75,-0.38523 0,5.20915 0,5.20915 8.5,-0.44613 8.5,-0.44614 0,11.69951 0,11.6995 -4.42444,-0.94364 c -2.43344,-0.519 -6.14594,-0.80195 -8.25,-0.62877 l -3.82556,0.31487 -0.2999,5.75 -0.29991,5.75 8.92418,0 c 5.3764,0 10.61433,-0.59632 13.17563,-1.5 2.3383,-0.825 4.41988,-1.5 4.62573,-1.5 0.20585,0 0.37427,6.3 0.37427,14 l 0,14 -29.12244,0 c -23.85795,0 -28.92642,-0.2362 -28.03803,-1.30665 1.19347,-1.43804 2.16981,-70.69494 0.9966,-70.69393 -0.36513,3.2e-4 -7.55366,16.20058 -15.97451,36.00058 l -15.31064,36 -10.26207,0 -10.26207,0 -1.35828,-3.25 z m 113.97445,1.5 c 1.09414,-2.23427 1.13146,-87.99447 0.0396,-91 l -0.81739,-2.25 18.31739,0.008 c 26.88167,0.0111 35.77524,2.01697 43.58957,9.8313 9.60309,9.60308 10.89647,28.08917 2.73888,39.14616 l -2.43133,3.29547 4.26637,3.25762 c 6.45445,4.92833 10.5122,13.40106 12.77797,26.68084 1.02879,6.02982 2.12331,11.37231 2.43225,11.87219 0.32856,0.53117 -6.53363,0.90842 -16.53249,0.90842 l -17.0942,0 1.14841,-2.14581 c 1.79149,-3.34743 0.56989,-11.27671 -2.43742,-15.82107 -2.66567,-4.02809 -8.18442,-8.26083 -12.39062,-9.50328 -2.24622,-0.6635 -2.25,-0.64425 -2.25,11.46851 0,6.67322 0.46583,13.00355 1.03518,14.06739 1.00475,1.87738 0.5311,1.93426 -16.10699,1.93426 -15.98568,0 -17.08435,-0.11806 -16.28518,-1.75 z m 40.43391,-53.17308 c 4.62934,-4.62934 3.41695,-11.13697 -2.53844,-13.62529 C 830.17934,371.70779 830,371.91483 830,381.91318 l 0,9 3.07692,0 c 2.06748,0 4.0359,-0.95897 6,-2.92308 z m 120.56609,53.17308 c 1.0972,-2.24052 1.1299,-87.99813 0.0347,-91.01545 l -0.8223,-2.26546 28.8223,0.26546 28.82229,0.26545 0.2787,13.8265 0.2787,13.8265 -2.2787,-0.73089 c -5.5407,-1.77715 -9.7926,-2.37598 -17.0287,-2.39825 l -7.75,-0.0239 0,6.1254 0,6.1254 8.5,-0.44613 8.5,-0.44614 0,11.92772 c 0,10.95186 -0.1432,11.87215 -1.75,11.24842 -0.9625,-0.37362 -4.7399,-0.93305 -8.3943,-1.24317 l -6.64431,-0.56385 -0.35569,5.26355 c -0.24851,3.67744 0.0379,5.41458 0.95056,5.76475 1.69772,0.65141 21.01794,-0.39421 23.94374,-1.29583 l 2.25,-0.69338 0,14.11663 0,14.11663 -29.10699,0 c -27.38075,0 -29.05616,-0.10379 -28.25,-1.75 z M 721.0663,248.63186 C 708.37985,226.51001 642.0386,111.46311 606.6492,50.21335 594.19214,28.65344 584,10.76594 584,10.46335 c 0,-0.30259 10.53096,-0.55017 23.40214,-0.55017 l 23.40214,0 13.45507,23.25 c 7.4003,12.7875 22.13269,38.325 32.73865,56.75 25.44187,44.1984 26.11071,45.29433 27.05403,44.32938 0.44593,-0.45616 16.63537,-28.27938 35.97653,-61.82938 19.34117,-33.55 40.49874,-70.24 47.01684,-81.53334 6.5181,-11.29334 12.14752,-21.30584 12.50983,-22.25 0.62064,-1.61736 -7.74009,-1.71666 -144.53157,-1.71666 -89.96988,0 -145.06355,-0.35676 -144.85699,-0.93804 C 510.35,-34.54078 515.675,-43.98298 522,-55.007539 l 11.5,-20.044647 193.85699,-0.01732 c 156.81666,-0.01401 193.7634,0.22656 193.3672,1.259057 -0.26939,0.702005 -25.82061,45.139506 -56.78051,98.749996 C 802.21332,131.83254 792.84187,148.08067 754.5,214.69205 c -14.3,24.8434 -26.225,45.16728 -26.5,45.16416 -0.275,-0.003 -3.39516,-5.05407 -6.9337,-11.22435 z"
       id="path3066"
       inkscape:connector-curvature="0" />
    <path
       style="fill:#5462bc"
       d="m 913.66904,444.90079 c -16.8841,-2.95317 -30.89274,-14.18975 -37.24333,-29.87357 -3.27074,-8.07762 -4.37795,-21.92627 -2.41763,-30.23907 2.7904,-11.83277 10.30013,-22.65577 20.07033,-28.92528 8.66926,-5.56306 15.52925,-7.13185 33.67159,-7.70029 l 16.25,-0.50914 0,17.01363 0,17.01363 -6.25,-2.54549 c -4.1053,-1.672 -8.82364,-2.68929 -13.75,-2.96456 -7.0001,-0.39114 -7.81349,-0.21717 -12.20335,2.61012 -6.29018,4.05119 -9.19161,9.63243 -9.25146,17.79627 -0.0388,5.29266 0.3847,6.77552 2.9964,10.49151 4.0512,5.76416 9.5692,8.81141 15.95841,8.81287 6.63451,0.002 7.70849,-0.81581 7.3192,-5.57003 l -0.3192,-3.89821 -7.75,0.0497 -7.75,0.0497 -9.6e-4,-11.04972 -9.7e-4,-11.04973 21.00097,0.28861 21.00096,0.28861 0,20.31217 c 0,12.34508 0.43684,21.56528 1.11372,23.50699 1.40126,4.01965 0.0877,5.65161 -8.03245,9.97962 -9.7875,5.21668 -24.54459,7.83754 -34.41223,6.11161 z m -460.03632,-3.73761 c 0.46569,-0.9625 0.98714,-16.30814 1.1588,-34.10143 l 0.3121,-32.35143 -9.07887,0.35143 -9.07887,0.35143 0.27706,-13.5 0.27706,-13.5 23.25,-0.26843 23.25,-0.26843 0,47.51843 0,47.51843 -15.60699,0 c -14.51968,0 -15.548,-0.12192 -14.76029,-1.75 z m 36.36728,-45.75 0,-47.5 20.5,0 20.5,0 0,13.83227 0,13.83228 -5.5,-0.45611 -5.5,-0.4561 0,5.12383 0,5.12383 8.5,0 8.5,0 0,-18.5 0,-18.5 15,0 15,0 0,47.5 0,47.5 -15.97525,0 -15.97525,0 0.97525,-2.5651 c 0.53639,-1.4108 0.97525,-9.2858 0.97525,-17.5 l 0,-14.9349 -8.54775,0 -8.54774,0 0.30402,15.75 c 0.16721,8.6625 0.68684,16.5375 1.15473,17.5 0.79211,1.62945 -0.25887,1.75 -15.25627,1.75 l -16.10699,0 0,-47.5 z m 81.12756,45.84753 c 2.08546,-2.51098 2.56573,-83.30668 0.5303,-89.21454 l -1.42393,-4.13299 28.88304,0 28.88303,0 0,13.85351 0,13.85352 -5.25,-1.37633 c -2.96258,-0.77667 -8.73559,-1.25747 -13.25,-1.10352 l -8,0.27282 -0.30373,5.87822 -0.30373,5.87822 8.55373,-0.44895 8.55373,-0.44896 0,11.69951 0,11.6995 -4.42444,-0.94364 c -2.43344,-0.519 -6.14594,-0.80195 -8.25,-0.62877 l -3.82556,0.31487 -0.30606,5.35971 -0.30607,5.3597 11.30607,-0.49388 c 6.21833,-0.27164 12.31856,-0.82349 13.55606,-1.22634 l 2.25,-0.73245 0,14.11663 0,14.11663 -29.12244,0 c -26.96791,0 -29.02091,-0.12225 -27.75,-1.65247 z m 113.541,-1.59753 c -13.83654,-33.10705 -37.64795,-86.76049 -39.46011,-88.91412 l -2.38624,-2.83588 33.5889,0 c 18.47389,0 33.58737,0.3375 33.58552,0.75 -0.002,0.4125 -1.964,5.925 -4.36033,12.25 l -4.35696,11.5 -7.63967,0.29206 C 689.43785,372.86588 686,373.16689 686,373.37416 c 0,0.94688 9.36762,26.12789 9.9783,26.82257 0.37884,0.43095 5.1038,-11.15655 10.49991,-25.75 l 9.81111,-26.53355 38.85534,0 38.85534,0 0,14.60699 c 0,13.55161 -0.12644,14.54879 -1.75,13.80148 -0.9625,-0.44304 -7.0375,-0.97887 -13.5,-1.19074 l -11.75,-0.38523 0,5.20915 0,5.20915 8.5,-0.44613 8.5,-0.44614 0,11.69951 0,11.6995 -4.42444,-0.94364 c -2.43344,-0.519 -6.14594,-0.80195 -8.25,-0.62877 l -3.82556,0.31487 -0.2999,5.75 -0.29991,5.75 8.92418,0 c 5.3764,0 10.61433,-0.59632 13.17563,-1.5 2.3383,-0.825 4.41988,-1.5 4.62573,-1.5 0.20585,0 0.37427,6.3 0.37427,14 l 0,14 -29.12244,0 c -23.85795,0 -28.92642,-0.2362 -28.03803,-1.30665 1.19347,-1.43804 2.16981,-70.69494 0.9966,-70.69393 -0.36513,3.2e-4 -7.55366,16.20058 -15.97451,36.00058 l -15.31064,36 -10.26207,0 -10.26207,0 -1.35828,-3.25 z m 113.97445,1.5 c 1.09414,-2.23427 1.13146,-87.99447 0.0396,-91 l -0.81739,-2.25 18.31739,0.008 c 26.88167,0.0111 35.77524,2.01697 43.58957,9.8313 9.60309,9.60308 10.89647,28.08917 2.73888,39.14616 l -2.43133,3.29547 4.26637,3.25762 c 6.45445,4.92833 10.5122,13.40106 12.77797,26.68084 1.02879,6.02982 2.12331,11.37231 2.43225,11.87219 0.32856,0.53117 -6.53363,0.90842 -16.53249,0.90842 l -17.0942,0 1.14841,-2.14581 c 1.79149,-3.34743 0.56989,-11.27671 -2.43742,-15.82107 -2.66567,-4.02809 -8.18442,-8.26083 -12.39062,-9.50328 -2.24622,-0.6635 -2.25,-0.64425 -2.25,11.46851 0,6.67322 0.46583,13.00355 1.03518,14.06739 1.00475,1.87738 0.5311,1.93426 -16.10699,1.93426 -15.98568,0 -17.08435,-0.11806 -16.28518,-1.75 z m 40.43391,-53.17308 c 4.62934,-4.62934 3.41695,-11.13697 -2.53844,-13.62529 C 830.17934,371.70779 830,371.91483 830,381.91318 l 0,9 3.07692,0 c 2.06748,0 4.0359,-0.95897 6,-2.92308 z m 120.56609,53.17308 c 1.0972,-2.24052 1.1299,-87.99813 0.0347,-91.01545 l -0.8223,-2.26546 28.8223,0.26546 28.82229,0.26545 0.2787,13.8265 0.2787,13.8265 -2.2787,-0.73089 c -5.5407,-1.77715 -9.7926,-2.37598 -17.0287,-2.39825 l -7.75,-0.0239 0,6.1254 0,6.1254 8.5,-0.44613 8.5,-0.44614 0,11.92772 c 0,10.95186 -0.1432,11.87215 -1.75,11.24842 -0.9625,-0.37362 -4.7399,-0.93305 -8.3943,-1.24317 l -6.64431,-0.56385 -0.35569,5.26355 c -0.24851,3.67744 0.0379,5.41458 0.95056,5.76475 1.69772,0.65141 21.01794,-0.39421 23.94374,-1.29583 l 2.25,-0.69338 0,14.11663 0,14.11663 -29.10699,0 c -27.38075,0 -29.05616,-0.10379 -28.25,-1.75 z M 721.0663,248.63186 C 708.37985,226.51001 642.0386,111.46311 606.6492,50.21335 594.19214,28.65344 584,10.76594 584,10.46335 c 0,-0.30259 10.53096,-0.55017 23.40214,-0.55017 l 23.40214,0 13.45678,23.25 c 7.40123,12.7875 22.26365,38.55 33.0276,57.25 10.76395,18.7 21.26244,36.7 23.32997,40 2.06754,3.3 3.663,6.37095 3.54548,6.82433 -0.11751,0.45338 0.25483,0.53479 0.82743,0.1809 0.57259,-0.35388 0.77833,-1.06858 0.45718,-1.5882 -0.66955,-1.08336 0.87288,-3.97632 16.75046,-31.41703 22.53697,-38.94992 34.16824,-59.06691 37.29269,-64.5 1.73962,-3.025 5.77941,-10 8.97732,-15.5 3.19791,-5.5 6.94203,-12.025 8.32027,-14.5 1.37824,-2.475 7.38943,-12.98159 13.35821,-23.34798 C 796.11645,-23.80119 801,-32.68869 801,-33.1848 c 0,-0.53188 -59.53372,-0.90202 -145.08333,-0.90202 -79.79584,0 -144.93334,-0.37964 -144.75,-0.84365 0.18333,-0.46401 5.28333,-9.44682 11.33333,-19.9618 l 11,-19.118151 168.85699,-0.0382 c 148.05769,-0.0335 168.7876,0.142621 168.29367,1.429775 -0.30982,0.807386 -0.0205,1.779533 0.64301,2.160325 0.66348,0.380793 0.88466,0.336037 0.49151,-0.09946 -0.39315,-0.435494 -0.26481,-1.632641 0.28519,-2.660325 0.93402,-1.745243 2.58808,-1.868514 25.0718,-1.868514 19.11188,0 23.97089,0.262993 23.58202,1.276374 -0.26939,0.702005 -25.82061,45.139506 -56.78051,98.749996 -61.73036,106.89299 -71.10181,123.14112 -109.44368,189.7525 -14.3,24.8434 -26.225,45.16728 -26.5,45.16416 -0.275,-0.003 -3.39516,-5.05407 -6.9337,-11.22435 z M 730,175.52017 c 0,-0.94863 -2.99338,-1.42672 -3.52699,-0.56332 -0.32508,0.52598 0.33551,0.95633 1.46797,0.95633 1.13246,0 2.05902,-0.17686 2.05902,-0.39301 z m -6.52935,-8.66374 c -1.68915,-3.26647 -2.02997,-3.4653 -3.06614,-1.78874 -0.42514,0.68789 -0.27601,0.88411 0.36899,0.48548 1.03481,-0.63955 2.87054,2.94365 2.39985,4.68434 -0.1226,0.45338 0.2366,0.54034 0.79821,0.19325 0.66197,-0.40912 0.48579,-1.66626 -0.50091,-3.57433 z m 9.33122,3.30675 c -0.40918,-1.54895 1.37928,-5.25607 2.27013,-4.7055 0.5104,0.31544 0.928,0.34853 0.928,0.0735 0,-0.275 -0.43084,-0.76627 -0.95741,-1.09171 -1.10072,-0.68028 -4.28402,4.89892 -3.33604,5.8469 0.84573,0.84572 1.3367,0.79049 1.09532,-0.12322 z m -12.83435,-9.31069 c -0.57084,-1.06662 -1.26289,-1.93931 -1.53789,-1.93931 -0.275,0 -0.05,0.84083 0.5,1.86852 0.55,1.02768 0.67834,2.22483 0.28519,2.66032 -0.39315,0.4355 -0.1511,0.46735 0.53788,0.0708 0.91466,-0.52645 0.97263,-1.24435 0.21482,-2.66033 z m -4.01499,-7.02801 C 715.05961,152.15605 713,151.95147 713,153.53121 c 0,0.275 0.45,0.22189 1,-0.11803 0.91637,-0.56635 1.44535,0.79972 1.09364,2.82433 -0.0788,0.45338 0.31917,0.53857 0.88429,0.18931 0.70084,-0.43314 0.69276,-1.26044 -0.0254,-2.60234 z m 24.74932,2.45722 c -0.34732,-0.34732 -0.17249,-1.58482 0.3885,-2.75 0.97862,-2.0326 0.95821,-2.04157 -0.50315,-0.2212 -1.3995,1.74332 -1.32803,3.60268 0.13848,3.60268 0.33421,0 0.32349,-0.28417 -0.0238,-0.63148 z M 712,146.91318 c -1.23628,-2.31001 -1.61427,-2.43314 -2.59549,-0.84549 -0.41666,0.67417 -0.27679,0.88459 0.3362,0.50574 0.57734,-0.35682 1.30775,0.0236 1.62312,0.84549 0.31537,0.82184 0.82836,1.49426 1.13997,1.49426 0.31161,0 0.0849,-0.9 -0.5038,-2 z m 33,0 c 0.5887,-1.1 0.84537,-2 0.57037,-2 -0.275,0 -0.98167,0.9 -1.57037,2 -0.5887,1.1 -0.84537,2 -0.57037,2 0.275,0 0.98167,-0.9 1.57037,-2 z m -36.03248,-5.06069 c -0.57084,-1.06662 -1.26289,-1.93931 -1.53789,-1.93931 -0.275,0 -0.05,0.84083 0.5,1.86852 0.55,1.02768 0.67834,2.22483 0.28519,2.66032 -0.39315,0.4355 -0.1511,0.46735 0.53788,0.0708 0.91466,-0.52645 0.97263,-1.24435 0.21482,-2.66033 z m 46.69915,-12.39532 c 0,-0.80081 -0.38234,-1.21971 -0.84965,-0.9309 -0.4673,0.28881 -0.59075,0.94401 -0.27431,1.45601 0.80862,1.30838 1.12396,1.16106 1.12396,-0.52511 z m 4,-7 c 0,-0.80081 -0.38234,-1.21971 -0.84965,-0.9309 -0.4673,0.28881 -0.59075,0.94401 -0.27431,1.45601 0.80862,1.30838 1.12396,1.16106 1.12396,-0.52511 z m 3.1352,-4.29399 c -0.40918,-1.54895 1.37928,-5.25607 2.27013,-4.7055 0.5104,0.31544 0.928,0.34853 0.928,0.0735 0,-0.275 -0.43084,-0.76627 -0.95741,-1.09171 -1.10072,-0.68028 -4.28402,4.89892 -3.33604,5.8469 0.84573,0.84572 1.3367,0.79049 1.09532,-0.12322 z m 6.58504,-12.43298 c -0.28881,-0.4673 -0.94401,-0.59075 -1.45601,-0.27431 -1.30838,0.80862 -1.16106,1.12396 0.52511,1.12396 0.80081,0 1.21971,-0.38234 0.9309,-0.84965 z M 773.5,98.91318 c -0.33992,-0.55 -0.0665,-1 0.60765,-1 0.67413,0 0.94152,-0.28417 0.5942,-0.63148 -0.34732,-0.34732 -0.18148,-1.47232 0.36852,-2.5 0.55,-1.02769 0.77072,-1.86852 0.49049,-1.86852 -0.92597,0 -3.49386,5.73367 -2.85431,6.37322 0.97509,0.97509 1.47998,0.73761 0.79345,-0.37322 z m 4.16667,-7.45601 c 0,-0.80081 -0.38234,-1.21971 -0.84965,-0.9309 -0.4673,0.28881 -0.59075,0.94401 -0.27431,1.45601 0.80862,1.30838 1.12396,1.16106 1.12396,-0.52511 z m 9.72024,-16.72697 c -0.28881,-0.4673 -0.94401,-0.59075 -1.45601,-0.27431 -1.30838,0.80862 -1.16106,1.12396 0.52511,1.12396 0.80081,0 1.21971,-0.38234 0.9309,-0.84965 z m 2.49467,-3.56702 c -0.33105,-2.09664 0.242,-3.29165 1.27293,-2.65451 0.76309,0.47162 0.88086,0.27075 0.34736,-0.59247 -0.63223,-1.02296 -1.09222,-0.91616 -2.12248,0.49281 -0.72343,0.98935 -1.07818,2.18252 -0.78834,2.65149 0.65089,1.05317 1.45065,1.1168 1.29053,0.10268 z m 6.82027,-11.88148 c -0.34732,-0.34732 -0.17249,-1.58482 0.3885,-2.75 0.97862,-2.0326 0.95821,-2.04157 -0.50315,-0.2212 -1.3995,1.74332 -1.32803,3.60268 0.13848,3.60268 0.33421,0 0.32349,-0.28417 -0.0238,-0.63148 z m 3.96482,-7.82453 c 0,-0.80081 -0.38234,-1.21971 -0.84965,-0.9309 -0.4673,0.28881 -0.59075,0.94401 -0.27431,1.45601 0.80862,1.30838 1.12396,1.16106 1.12396,-0.52511 z m 5.84253,-8.77845 c 0.4463,0.40395 0.48775,0.17196 0.0921,-0.51554 -0.99499,-1.729 -1.36773,-1.5868 -2.62129,1 -0.9784,2.01899 -0.9462,2.07192 0.31369,0.51554 0.77222,-0.95395 1.7692,-1.40395 2.21549,-1 z m 5.19265,-9.39702 c -0.34732,-0.34732 -0.17249,-1.58482 0.3885,-2.75 0.97862,-2.0326 0.95821,-2.04157 -0.50315,-0.2212 -1.3995,1.74332 -1.32803,3.60268 0.13848,3.60268 0.33421,0 0.32349,-0.28417 -0.0238,-0.63148 z m 7.0047,-11.9953 c -0.34473,-0.34474 0.0418,-1.91974 0.85901,-3.5 0.81719,-1.58027 1.2608,-2.87322 0.9858,-2.87322 -0.275,0 -1.16861,1.29295 -1.9858,2.87322 -1.31908,2.55082 -1.21682,4.12678 0.26777,4.12678 0.275,0 0.21795,-0.28205 -0.12678,-0.62678 z m 7.9953,-14.0047 c -0.34732,-0.34732 -0.17249,-1.58482 0.3885,-2.75 0.97862,-2.0326 0.95821,-2.04157 -0.50315,-0.2212 -1.3995,1.74332 -1.32803,3.60268 0.13848,3.60268 0.33421,0 0.32349,-0.28417 -0.0238,-0.63148 z m 7.10002,-12.11852 c -0.40918,-1.54895 1.37928,-5.25607 2.27013,-4.7055 0.5104,0.31544 0.928,0.34853 0.928,0.0735 0,-0.275 -0.43084,-0.76627 -0.95741,-1.09171 -1.10072,-0.68028 -4.28402,4.89892 -3.33604,5.8469 0.84573,0.84572 1.3367,0.79049 1.09532,-0.12322 z m 6.69813,-12.25 c -0.33992,-0.55 -0.0665,-1 0.60765,-1 0.67413,0 0.94152,-0.28417 0.5942,-0.63148 -0.34732,-0.34732 -0.18148,-1.47232 0.36852,-2.5 0.55,-1.02769 0.77072,-1.86852 0.49049,-1.86852 -0.92597,0 -3.49386,5.73367 -2.85431,6.37322 0.97509,0.97509 1.47998,0.73761 0.79345,-0.37322 z m 5.16667,-9.45601 c 0,-0.80081 -0.38234,-1.21971 -0.84965,-0.9309 -0.4673,0.28881 -0.59075,0.94401 -0.27431,1.45601 0.80862,1.30838 1.12396,1.16106 1.12396,-0.52511 z m 3.03518,-4.17547 c -0.34732,-0.34732 -0.17249,-1.58482 0.3885,-2.75 0.97862,-2.0326 0.95821,-2.04157 -0.50315,-0.2212 -1.3995,1.74332 -1.32803,3.60268 0.13848,3.60268 0.33421,0 0.32349,-0.28417 -0.0238,-0.63148 z m 8.10002,-14.11852 c -0.40918,-1.54895 1.37928,-5.256075 2.27013,-4.705504 0.5104,0.315446 0.928,0.348538 0.928,0.07354 0,-0.275 -0.43084,-0.766271 -0.95741,-1.091713 -1.10072,-0.680279 -4.28402,4.898919 -3.33604,5.846899 0.84573,0.84572 1.3367,0.79049 1.09532,-0.12322 z m 7,-12 c -0.40918,-1.548955 1.37928,-5.256075 2.27013,-4.705504 0.5104,0.315446 0.928,0.348538 0.928,0.07354 0,-0.275 -0.43084,-0.766271 -0.95741,-1.091713 -1.10072,-0.680279 -4.28402,4.898919 -3.33604,5.846895 0.84573,0.845727 1.3367,0.790496 1.09532,-0.123216 z m 3.8648,-7.706011 c 0,-0.800807 -0.38234,-1.219712 -0.84965,-0.930902 -0.4673,0.28881 -0.59075,0.944015 -0.27431,1.456011 0.80862,1.308382 1.12396,1.161058 1.12396,-0.525109 z"
       id="path3064"
       inkscape:connector-curvature="0" />
    <path
       style="fill:#8c5a8a"
       d="m 913.66904,444.90079 c -16.8841,-2.95317 -30.89274,-14.18975 -37.24333,-29.87357 -3.27074,-8.07762 -4.37795,-21.92627 -2.41763,-30.23907 2.7904,-11.83277 10.30013,-22.65577 20.07033,-28.92528 8.66926,-5.56306 15.52925,-7.13185 33.67159,-7.70029 l 16.25,-0.50914 0,17.01363 0,17.01363 -6.25,-2.54549 c -4.1053,-1.672 -8.82364,-2.68929 -13.75,-2.96456 -7.0001,-0.39114 -7.81349,-0.21717 -12.20335,2.61012 -6.29018,4.05119 -9.19161,9.63243 -9.25146,17.79627 -0.0388,5.29266 0.3847,6.77552 2.9964,10.49151 4.0512,5.76416 9.5692,8.81141 15.95841,8.81287 6.63451,0.002 7.70849,-0.81581 7.3192,-5.57003 l -0.3192,-3.89821 -7.75,0.0497 -7.75,0.0497 -9.6e-4,-11.04972 -9.7e-4,-11.04973 21.00097,0.28861 21.00096,0.28861 0,20.31217 c 0,12.34508 0.43684,21.56528 1.11372,23.50699 1.40126,4.01965 0.0877,5.65161 -8.03245,9.97962 -9.7875,5.21668 -24.54459,7.83754 -34.41223,6.11161 z m -460.03632,-3.73761 c 0.46569,-0.9625 0.98714,-16.30814 1.1588,-34.10143 l 0.3121,-32.35143 -9.07887,0.35143 -9.07887,0.35143 0.27706,-13.5 0.27706,-13.5 23.25,-0.26843 23.25,-0.26843 0,47.51843 0,47.51843 -15.60699,0 c -14.51968,0 -15.548,-0.12192 -14.76029,-1.75 z m 36.36728,-45.75 0,-47.5 20.5,0 20.5,0 0,13.83227 0,13.83228 -5.5,-0.45611 -5.5,-0.4561 0,5.12383 0,5.12383 8.5,0 8.5,0 0,-18.5 0,-18.5 15,0 15,0 0,47.5 0,47.5 -15.97525,0 -15.97525,0 0.97525,-2.5651 c 0.53639,-1.4108 0.97525,-9.2858 0.97525,-17.5 l 0,-14.9349 -8.54775,0 -8.54774,0 0.30402,15.75 c 0.16721,8.6625 0.68684,16.5375 1.15473,17.5 0.79211,1.62945 -0.25887,1.75 -15.25627,1.75 l -16.10699,0 0,-47.5 z m 81.12756,45.84753 c 2.08546,-2.51098 2.56573,-83.30668 0.5303,-89.21454 l -1.42393,-4.13299 28.88304,0 28.88303,0 0,13.85351 0,13.85352 -5.25,-1.37633 c -2.96258,-0.77667 -8.73559,-1.25747 -13.25,-1.10352 l -8,0.27282 -0.30373,5.87822 -0.30373,5.87822 8.55373,-0.44895 8.55373,-0.44896 0,11.69951 0,11.6995 -4.42444,-0.94364 c -2.43344,-0.519 -6.14594,-0.80195 -8.25,-0.62877 l -3.82556,0.31487 -0.30606,5.35971 -0.30607,5.3597 11.30607,-0.49388 c 6.21833,-0.27164 12.31856,-0.82349 13.55606,-1.22634 l 2.25,-0.73245 0,14.11663 0,14.11663 -29.12244,0 c -26.96791,0 -29.02091,-0.12225 -27.75,-1.65247 z m 113.541,-1.59753 c -13.83654,-33.10705 -37.64795,-86.76049 -39.46011,-88.91412 l -2.38624,-2.83588 33.5889,0 c 18.47389,0 33.58737,0.3375 33.58552,0.75 -0.002,0.4125 -1.964,5.925 -4.36033,12.25 l -4.35696,11.5 -7.63967,0.29206 C 689.43785,372.86588 686,373.16689 686,373.37416 c 0,0.94688 9.36762,26.12789 9.9783,26.82257 0.37884,0.43095 5.1038,-11.15655 10.49991,-25.75 l 9.81111,-26.53355 38.85534,0 38.85534,0 0,14.60699 c 0,13.55161 -0.12644,14.54879 -1.75,13.80148 -0.9625,-0.44304 -7.0375,-0.97887 -13.5,-1.19074 l -11.75,-0.38523 0,5.20915 0,5.20915 8.5,-0.44613 8.5,-0.44614 0,11.69951 0,11.6995 -4.42444,-0.94364 c -2.43344,-0.519 -6.14594,-0.80195 -8.25,-0.62877 l -3.82556,0.31487 -0.2999,5.75 -0.29991,5.75 8.92418,0 c 5.3764,0 10.61433,-0.59632 13.17563,-1.5 2.3383,-0.825 4.41988,-1.5 4.62573,-1.5 0.20585,0 0.37427,6.3 0.37427,14 l 0,14 -29.12244,0 c -23.85795,0 -28.92642,-0.2362 -28.03803,-1.30665 1.19347,-1.43804 2.16981,-70.69494 0.9966,-70.69393 -0.36513,3.2e-4 -7.55366,16.20058 -15.97451,36.00058 l -15.31064,36 -10.26207,0 -10.26207,0 -1.35828,-3.25 z m 113.97445,1.5 c 1.09414,-2.23427 1.13146,-87.99447 0.0396,-91 l -0.81739,-2.25 18.31739,0.008 c 26.88167,0.0111 35.77524,2.01697 43.58957,9.8313 9.60309,9.60308 10.89647,28.08917 2.73888,39.14616 l -2.43133,3.29547 4.26637,3.25762 c 6.45445,4.92833 10.5122,13.40106 12.77797,26.68084 1.02879,6.02982 2.12331,11.37231 2.43225,11.87219 0.32856,0.53117 -6.53363,0.90842 -16.53249,0.90842 l -17.0942,0 1.14841,-2.14581 c 1.79149,-3.34743 0.56989,-11.27671 -2.43742,-15.82107 -2.66567,-4.02809 -8.18442,-8.26083 -12.39062,-9.50328 -2.24622,-0.6635 -2.25,-0.64425 -2.25,11.46851 0,6.67322 0.46583,13.00355 1.03518,14.06739 1.00475,1.87738 0.5311,1.93426 -16.10699,1.93426 -15.98568,0 -17.08435,-0.11806 -16.28518,-1.75 z m 40.43391,-53.17308 c 4.62934,-4.62934 3.41695,-11.13697 -2.53844,-13.62529 C 830.17934,371.70779 830,371.91483 830,381.91318 l 0,9 3.07692,0 c 2.06748,0 4.0359,-0.95897 6,-2.92308 z m 120.56609,53.17308 c 1.0972,-2.24052 1.1299,-87.99813 0.0347,-91.01545 l -0.8223,-2.26546 28.8223,0.26546 28.82229,0.26545 0.2787,13.8265 0.2787,13.8265 -2.2787,-0.73089 c -5.5407,-1.77715 -9.7926,-2.37598 -17.0287,-2.39825 l -7.75,-0.0239 0,6.1254 0,6.1254 8.5,-0.44613 8.5,-0.44614 0,11.92772 c 0,10.95186 -0.1432,11.87215 -1.75,11.24842 -0.9625,-0.37362 -4.7399,-0.93305 -8.3943,-1.24317 l -6.64431,-0.56385 -0.35569,5.26355 c -0.24851,3.67744 0.0379,5.41458 0.95056,5.76475 1.69772,0.65141 21.01794,-0.39421 23.94374,-1.29583 l 2.25,-0.69338 0,14.11663 0,14.11663 -29.10699,0 c -27.38075,0 -29.05616,-0.10379 -28.25,-1.75 z M 721.0663,248.63186 C 708.37985,226.51001 642.0386,111.46311 606.6492,50.21335 594.19214,28.65344 584,10.76594 584,10.46335 c 0,-0.30259 10.53096,-0.55017 23.40214,-0.55017 l 23.40214,0 13.45678,23.25 c 7.40123,12.7875 22.26365,38.55 33.0276,57.25 10.76395,18.7 21.26244,36.7 23.32997,40 2.06754,3.3 3.67415,6.3375 3.57026,6.75 -0.10389,0.4125 0.33611,0.75 0.97778,0.75 0.64166,0 0.89376,0.2729 0.56021,0.60645 -0.33354,0.33355 0.2509,1.5267 1.29876,2.65144 1.04786,1.12475 1.6692,2.42685 1.38076,2.89355 -0.28844,0.46671 0.0271,0.84856 0.70125,0.84856 0.67413,0 0.96318,0.2625 0.64235,0.58333 -0.32083,0.32084 0.29558,1.46225 1.36981,2.53648 1.07423,1.07423 1.68517,2.38673 1.35765,2.91666 -0.32752,0.52994 -0.0924,0.96353 0.52254,0.96353 0.61492,0 0.86906,0.40285 0.56476,0.89522 -0.3043,0.49236 0.14766,1.16419 1.00437,1.49293 0.8567,0.32875 1.27755,1.0509 0.93524,1.60479 -0.34232,0.55388 -0.0709,1.00706 0.60328,1.00706 0.67413,0 0.95278,0.2729 0.61923,0.60645 -0.33354,0.33355 0.2509,1.5267 1.29876,2.65144 1.04786,1.12475 1.6692,2.42685 1.38076,2.89355 -0.28844,0.46671 0.0271,0.84856 0.70125,0.84856 0.67413,0 0.95278,0.2729 0.61923,0.60645 -0.33354,0.33355 0.2509,1.5267 1.29876,2.65144 1.04786,1.12475 1.6692,2.42685 1.38076,2.89355 -0.28844,0.46671 -0.0213,0.84856 0.5936,0.84856 0.61492,0 0.83992,0.45 0.5,1 -0.33992,0.55 -0.14148,1 0.44098,1 0.58246,0 1.05902,0.675 1.05902,1.5 0,0.84766 0.89545,1.5 2.05902,1.5 1.13246,0 1.82302,-0.38185 1.53458,-0.84856 -0.28844,-0.4667 0.27272,-1.7042 1.24703,-2.75 0.9743,-1.04579 1.85506,-2.35144 1.95723,-2.90144 0.10217,-0.55 0.82749,-1.74947 1.6118,-2.66548 0.78432,-0.91602 1.16301,-1.92852 0.84152,-2.25 -0.32148,-0.32149 -0.033,-0.58452 0.64117,-0.58452 0.67413,0 0.98969,-0.38185 0.70125,-0.84856 -0.28844,-0.4667 0.3329,-1.7688 1.38076,-2.89355 1.04786,-1.12474 1.6323,-2.31789 1.29876,-2.65144 -0.33355,-0.33355 -0.0549,-0.60645 0.61923,-0.60645 0.67413,0 0.98969,-0.38185 0.70125,-0.84856 -0.28844,-0.4667 0.27272,-1.7042 1.24703,-2.75 1.76277,-1.89211 2.15937,-2.66587 2.15937,-4.21288 0,-0.44629 0.81272,-1.68379 1.80604,-2.75 0.99333,-1.06621 1.95424,-2.38856 2.13535,-2.93856 0.97662,-2.96571 2.48712,-5.5 3.27814,-5.5 0.49418,0 0.66251,-0.38185 0.37407,-0.84856 -0.28844,-0.4667 0.3329,-1.7688 1.38076,-2.89355 1.04786,-1.12474 1.6323,-2.31789 1.29876,-2.65144 -0.33355,-0.33355 -0.0549,-0.60645 0.61923,-0.60645 0.67413,0 0.98969,-0.38185 0.70125,-0.84856 -0.28844,-0.4667 0.3329,-1.7688 1.38076,-2.89355 1.04786,-1.12474 1.6323,-2.31789 1.29876,-2.65144 -0.33355,-0.33355 -0.0549,-0.60645 0.61923,-0.60645 0.67413,0 0.98969,-0.38185 0.70125,-0.84856 -0.28844,-0.4667 0.27272,-1.7042 1.24703,-2.75 0.9743,-1.04579 1.85506,-2.35144 1.95723,-2.90144 0.10217,-0.55 0.82749,-1.74947 1.6118,-2.66548 0.78432,-0.91602 1.16301,-1.92852 0.84152,-2.25 -0.32148,-0.32149 -0.033,-0.58452 0.64117,-0.58452 0.67413,0 0.98969,-0.38185 0.70125,-0.84856 -0.28844,-0.4667 0.3329,-1.7688 1.38076,-2.89355 1.04786,-1.12474 1.6323,-2.31789 1.29876,-2.65144 -0.33355,-0.33355 -0.13024,-0.60645 0.45181,-0.60645 0.58204,0 1.34061,-1.125 1.68571,-2.5 0.34511,-1.375 1.09545,-2.5 1.66743,-2.5 0.57198,0 0.76185,-0.45 0.42193,-1 -0.33992,-0.55 -0.19026,-1 0.33257,-1 0.52284,0 1.23297,-1.125 1.57807,-2.5 0.34511,-1.375 1.09545,-2.5 1.66743,-2.5 0.57198,0 0.80397,-0.38185 0.51553,-0.84856 -0.28844,-0.4667 0.3329,-1.7688 1.38076,-2.89355 1.04786,-1.12474 1.6323,-2.31789 1.29876,-2.65144 -0.33355,-0.33355 -0.0549,-0.60645 0.61923,-0.60645 0.67413,0 0.98969,-0.38185 0.70125,-0.84856 -0.28844,-0.4667 0.3329,-1.7688 1.38076,-2.89355 1.04786,-1.12474 1.6323,-2.31789 1.29876,-2.65144 -0.33355,-0.33355 -0.0549,-0.60645 0.61923,-0.60645 0.67413,0 0.9456,-0.45318 0.60328,-1.00706 -0.34231,-0.55389 0.0785,-1.27604 0.93524,-1.60479 0.85671,-0.32874 1.30867,-1.00057 1.00437,-1.49293 -0.3043,-0.49237 -0.0502,-0.89522 0.56476,-0.89522 0.61492,0 0.83992,-0.45 0.5,-1 -0.33992,-0.55 -0.14148,-1 0.44098,-1 0.58246,0 1.05902,-0.675 1.05902,-1.5 0,-0.825 0.47656,-1.5 1.05902,-1.5 0.58246,0 0.7809,-0.45 0.44098,-1 -0.33992,-0.55 -0.11492,-1 0.5,-1 0.61492,0 0.88204,-0.38185 0.5936,-0.84856 -0.28844,-0.4667 0.3329,-1.7688 1.38076,-2.89355 1.04786,-1.12474 1.6323,-2.31789 1.29876,-2.65144 -0.33355,-0.33355 -0.0549,-0.60645 0.61923,-0.60645 0.67413,0 0.98969,-0.38185 0.70125,-0.84856 -0.28844,-0.4667 0.3329,-1.7688 1.38076,-2.89355 1.04786,-1.12474 1.6323,-2.31789 1.29876,-2.65144 -0.33355,-0.33355 -0.0549,-0.60645 0.61923,-0.60645 0.67413,0 0.98969,-0.38185 0.70125,-0.84856 -0.28844,-0.4667 0.27272,-1.7042 1.24703,-2.75 0.9743,-1.04579 1.85506,-2.35144 1.95723,-2.90144 0.10217,-0.55 0.82749,-1.74947 1.6118,-2.66548 0.78432,-0.91602 1.16301,-1.92852 0.84152,-2.25 -0.32148,-0.32149 -0.033,-0.58452 0.64117,-0.58452 0.67413,0 0.98969,-0.38185 0.70125,-0.84856 -0.28844,-0.4667 0.3329,-1.7688 1.38076,-2.89355 1.04786,-1.12474 1.6323,-2.31789 1.29876,-2.65144 -0.33355,-0.33355 -0.0549,-0.60645 0.61923,-0.60645 0.67413,0 0.98969,-0.38185 0.70125,-0.84856 -0.28844,-0.4667 0.3329,-1.7688 1.38076,-2.89355 1.04786,-1.12474 1.6323,-2.31789 1.29876,-2.65144 -0.33355,-0.33355 -0.0549,-0.60645 0.61923,-0.60645 0.67413,0 0.98969,-0.38185 0.70125,-0.84856 -0.28844,-0.4667 0.27272,-1.7042 1.24703,-2.75 0.9743,-1.04579 1.91965,-2.35144 2.10076,-2.90144 0.97662,-2.96571 2.48712,-5.5 3.27814,-5.5 0.49418,0 0.66251,-0.38185 0.37407,-0.84856 -0.28844,-0.4667 0.3329,-1.7688 1.38076,-2.89355 1.04786,-1.12474 1.6323,-2.31789 1.29876,-2.65144 -0.33355,-0.33355 -0.0549,-0.60645 0.61923,-0.60645 0.67413,0 0.98969,-0.38185 0.70125,-0.84856 -0.28844,-0.4667 0.3329,-1.7688 1.38076,-2.89355 1.04786,-1.12474 1.6323,-2.31789 1.29876,-2.65144 -0.33355,-0.33355 -0.0549,-0.60645 0.61923,-0.60645 0.67413,0 0.9456,-0.45318 0.60328,-1.00706 -0.34231,-0.55389 0.0785,-1.27604 0.93524,-1.60479 0.85671,-0.32874 1.30867,-1.00057 1.00437,-1.49293 -0.3043,-0.49237 -0.0502,-0.89522 0.56476,-0.89522 0.61492,0 0.88204,-0.38185 0.5936,-0.84856 -0.28844,-0.4667 0.3329,-1.7688 1.38076,-2.89355 1.04786,-1.12474 1.6323,-2.31789 1.29876,-2.65144 -0.33355,-0.33355 -0.0549,-0.60645 0.61923,-0.60645 0.67413,0 0.98969,-0.38185 0.70125,-0.84856 -0.28844,-0.4667 0.3329,-1.7688 1.38076,-2.89355 1.04786,-1.12474 1.6323,-2.31789 1.29876,-2.65144 -0.33355,-0.33355 -0.13024,-0.60645 0.45181,-0.60645 0.58204,0 1.34061,-1.125 1.68571,-2.5 0.34511,-1.375 1.09545,-2.5 1.66743,-2.5 0.57198,0 0.76185,-0.45 0.42193,-1 -0.33992,-0.55 -0.14148,-1 0.44098,-1 0.58246,0 1.05902,-0.675 1.05902,-1.5 0,-0.825 0.47656,-1.5 1.05902,-1.5 0.58246,0 0.7809,-0.45 0.44098,-1 -0.33992,-0.55 -0.11492,-1 0.5,-1 0.61492,0 0.88204,-0.38185 0.5936,-0.84856 -0.28844,-0.4667 0.3329,-1.7688 1.38076,-2.89355 1.04786,-1.12474 1.6323,-2.31789 1.29876,-2.65144 -0.33355,-0.33355 -0.0549,-0.60645 0.61923,-0.60645 0.67413,0 0.98969,-0.38185 0.70125,-0.84856 -0.28844,-0.4667 0.3329,-1.7688 1.38076,-2.89355 1.04786,-1.12474 1.6323,-2.31789 1.29876,-2.65144 -0.33355,-0.33355 -0.0549,-0.60645 0.61923,-0.60645 0.67413,0 0.98969,-0.38185 0.70125,-0.84856 -0.28844,-0.4667 0.37753,-1.8167 1.47994,-3 1.1024,-1.18329 1.7364,-2.15144 1.40888,-2.15144 -0.32752,0 0.20197,-1.35 1.17665,-3 0.97468,-1.65 2.15168,-3 2.61555,-3 0.46388,0 0.60742,-0.38185 0.31898,-0.848556 -0.28844,-0.466706 0.3329,-1.768804 1.38076,-2.893551 1.04786,-1.124747 1.6323,-2.317897 1.29876,-2.651444 -0.33355,-0.333547 -0.0549,-0.606449 0.61923,-0.606449 0.67413,0 0.98969,-0.38185 0.70125,-0.848556 -0.28844,-0.466706 0.3329,-1.768804 1.38076,-2.893551 1.04786,-1.124747 1.6323,-2.317897 1.29876,-2.651444 -0.33355,-0.333547 -0.0814,-0.606449 0.56021,-0.606449 0.64167,0 1.16667,-0.675 1.16667,-1.5 0,-0.825 0.47656,-1.5 1.05902,-1.5 0.58246,0 0.7809,-0.45 0.44098,-1 -0.40551,-0.656129 7.69195,-1 23.54797,-1 19.18828,0 24.06512,0.262908 23.67622,1.276374 -0.26939,0.702005 -25.82061,45.139506 -56.78051,98.749996 -61.73036,106.89299 -71.10181,123.14112 -109.44368,189.7525 -14.3,24.8434 -26.225,45.16728 -26.5,45.16416 -0.275,-0.003 -3.39516,-5.05407 -6.9337,-11.22435 z"
       id="path3062"
       inkscape:connector-curvature="0" />
    <path
       style="fill:#f94a29"
       d="m 913.66904,444.90079 c -16.8841,-2.95317 -30.89274,-14.18975 -37.24333,-29.87357 -3.27074,-8.07762 -4.37795,-21.92627 -2.41763,-30.23907 2.7904,-11.83277 10.30013,-22.65577 20.07033,-28.92528 8.66926,-5.56306 15.52925,-7.13185 33.67159,-7.70029 l 16.25,-0.50914 0,17.01363 0,17.01363 -6.25,-2.54549 c -4.1053,-1.672 -8.82364,-2.68929 -13.75,-2.96456 -7.0001,-0.39114 -7.81349,-0.21717 -12.20335,2.61012 -6.29018,4.05119 -9.19161,9.63243 -9.25146,17.79627 -0.0388,5.29266 0.3847,6.77552 2.9964,10.49151 4.0512,5.76416 9.5692,8.81141 15.95841,8.81287 6.63451,0.002 7.70849,-0.81581 7.3192,-5.57003 l -0.3192,-3.89821 -7.75,0.0497 -7.75,0.0497 -9.6e-4,-11.04972 -9.7e-4,-11.04973 21.00097,0.28861 21.00096,0.28861 0,20.31217 c 0,12.34508 0.43684,21.56528 1.11372,23.50699 1.40126,4.01965 0.0877,5.65161 -8.03245,9.97962 -9.7875,5.21668 -24.54459,7.83754 -34.41223,6.11161 z m -460.03632,-3.73761 c 0.46569,-0.9625 0.98714,-16.30814 1.1588,-34.10143 l 0.3121,-32.35143 -9.07887,0.35143 -9.07887,0.35143 0.27706,-13.5 0.27706,-13.5 23.25,-0.26843 23.25,-0.26843 0,47.51843 0,47.51843 -15.60699,0 c -14.51968,0 -15.548,-0.12192 -14.76029,-1.75 z m 36.36728,-45.75 0,-47.5 20.5,0 20.5,0 0,13.83227 0,13.83228 -5.5,-0.45611 -5.5,-0.4561 0,5.12383 0,5.12383 8.5,0 8.5,0 0,-18.5 0,-18.5 15,0 15,0 0,47.5 0,47.5 -15.97525,0 -15.97525,0 0.97525,-2.5651 c 0.53639,-1.4108 0.97525,-9.2858 0.97525,-17.5 l 0,-14.9349 -8.54775,0 -8.54774,0 0.30402,15.75 c 0.16721,8.6625 0.68684,16.5375 1.15473,17.5 0.79211,1.62945 -0.25887,1.75 -15.25627,1.75 l -16.10699,0 0,-47.5 z m 81.12756,45.84753 c 2.08546,-2.51098 2.56573,-83.30668 0.5303,-89.21454 l -1.42393,-4.13299 28.88304,0 28.88303,0 0,13.85351 0,13.85352 -5.25,-1.37633 c -2.96258,-0.77667 -8.73559,-1.25747 -13.25,-1.10352 l -8,0.27282 -0.30373,5.87822 -0.30373,5.87822 8.55373,-0.44895 8.55373,-0.44896 0,11.69951 0,11.6995 -4.42444,-0.94364 c -2.43344,-0.519 -6.14594,-0.80195 -8.25,-0.62877 l -3.82556,0.31487 -0.30606,5.35971 -0.30607,5.3597 11.30607,-0.49388 c 6.21833,-0.27164 12.31856,-0.82349 13.55606,-1.22634 l 2.25,-0.73245 0,14.11663 0,14.11663 -29.12244,0 c -26.96791,0 -29.02091,-0.12225 -27.75,-1.65247 z m 113.541,-1.59753 c -13.83654,-33.10705 -37.64795,-86.76049 -39.46011,-88.91412 l -2.38624,-2.83588 33.5889,0 c 18.47389,0 33.58737,0.3375 33.58552,0.75 -0.002,0.4125 -1.964,5.925 -4.36033,12.25 l -4.35696,11.5 -7.63967,0.29206 C 689.43785,372.86588 686,373.16689 686,373.37416 c 0,0.94688 9.36762,26.12789 9.9783,26.82257 0.37884,0.43095 5.1038,-11.15655 10.49991,-25.75 l 9.81111,-26.53355 38.85534,0 38.85534,0 0,14.60699 c 0,13.55161 -0.12644,14.54879 -1.75,13.80148 -0.9625,-0.44304 -7.0375,-0.97887 -13.5,-1.19074 l -11.75,-0.38523 0,5.20915 0,5.20915 8.5,-0.44613 8.5,-0.44614 0,11.69951 0,11.6995 -4.42444,-0.94364 c -2.43344,-0.519 -6.14594,-0.80195 -8.25,-0.62877 l -3.82556,0.31487 -0.2999,5.75 -0.29991,5.75 8.92418,0 c 5.3764,0 10.61433,-0.59632 13.17563,-1.5 2.3383,-0.825 4.41988,-1.5 4.62573,-1.5 0.20585,0 0.37427,6.3 0.37427,14 l 0,14 -29.12244,0 c -23.85795,0 -28.92642,-0.2362 -28.03803,-1.30665 1.19347,-1.43804 2.16981,-70.69494 0.9966,-70.69393 -0.36513,3.2e-4 -7.55366,16.20058 -15.97451,36.00058 l -15.31064,36 -10.26207,0 -10.26207,0 -1.35828,-3.25 z m 113.97445,1.5 c 1.09414,-2.23427 1.13146,-87.99447 0.0396,-91 l -0.81739,-2.25 18.31739,0.008 c 26.88167,0.0111 35.77524,2.01697 43.58957,9.8313 9.60309,9.60308 10.89647,28.08917 2.73888,39.14616 l -2.43133,3.29547 4.26637,3.25762 c 6.45445,4.92833 10.5122,13.40106 12.77797,26.68084 1.02879,6.02982 2.12331,11.37231 2.43225,11.87219 0.32856,0.53117 -6.53363,0.90842 -16.53249,0.90842 l -17.0942,0 1.14841,-2.14581 c 1.79149,-3.34743 0.56989,-11.27671 -2.43742,-15.82107 -2.66567,-4.02809 -8.18442,-8.26083 -12.39062,-9.50328 -2.24622,-0.6635 -2.25,-0.64425 -2.25,11.46851 0,6.67322 0.46583,13.00355 1.03518,14.06739 1.00475,1.87738 0.5311,1.93426 -16.10699,1.93426 -15.98568,0 -17.08435,-0.11806 -16.28518,-1.75 z m 40.43391,-53.17308 c 4.62934,-4.62934 3.41695,-11.13697 -2.53844,-13.62529 C 830.17934,371.70779 830,371.91483 830,381.91318 l 0,9 3.07692,0 c 2.06748,0 4.0359,-0.95897 6,-2.92308 z m 120.56609,53.17308 c 1.0972,-2.24052 1.1299,-87.99813 0.0347,-91.01545 l -0.8223,-2.26546 28.8223,0.26546 28.82229,0.26545 0.2787,13.8265 0.2787,13.8265 -2.2787,-0.73089 c -5.5407,-1.77715 -9.7926,-2.37598 -17.0287,-2.39825 l -7.75,-0.0239 0,6.1254 0,6.1254 8.5,-0.44613 8.5,-0.44614 0,11.92772 c 0,10.95186 -0.1432,11.87215 -1.75,11.24842 -0.9625,-0.37362 -4.7399,-0.93305 -8.3943,-1.24317 l -6.64431,-0.56385 -0.35569,5.26355 c -0.24851,3.67744 0.0379,5.41458 0.95056,5.76475 1.69772,0.65141 21.01794,-0.39421 23.94374,-1.29583 l 2.25,-0.69338 0,14.11663 0,14.11663 -29.10699,0 c -27.38075,0 -29.05616,-0.10379 -28.25,-1.75 z M 721.0663,248.63186 C 708.37985,226.51001 642.0386,111.46311 606.6492,50.21335 594.19214,28.65344 584,10.76594 584,10.46335 c 0,-0.30259 10.53096,-0.55017 23.40214,-0.55017 l 23.40214,0 13.45419,23.25 c 24.3734,42.11932 50.11025,86.80621 66.80281,115.98973 9.0413,15.80685 16.66372,28.7294 16.93872,28.71677 0.275,-0.0126 11.95125,-19.9205 25.94721,-44.23972 41.4751,-72.06663 117.8248,-204.359724 119.44579,-206.96678 0.98593,-1.585693 3.28196,-1.75 24.45454,-1.75 18.53981,0 23.26527,0.263651 22.87665,1.276374 -0.26939,0.702005 -25.82061,45.139506 -56.78051,98.749996 -61.73036,106.89299 -71.10181,123.14112 -109.44368,189.7525 -14.3,24.8434 -26.225,45.16728 -26.5,45.16416 -0.275,-0.003 -3.39516,-5.05407 -6.9337,-11.22435 z"
       id="path3060"
       inkscape:connector-curvature="0" />
  </g>
</svg>
